<?xml version="1.0" encoding="UTF-8" standalone="no"?>
<!-- Created with Inkscape (http://www.inkscape.org/) -->

<svg
   xmlns:dc="http://purl.org/dc/elements/1.1/"
   xmlns:cc="http://creativecommons.org/ns#"
   xmlns:rdf="http://www.w3.org/1999/02/22-rdf-syntax-ns#"
   xmlns:svg="http://www.w3.org/2000/svg"
   xmlns="http://www.w3.org/2000/svg"
   xmlns:xlink="http://www.w3.org/1999/xlink"
   xmlns:sodipodi="http://sodipodi.sourceforge.net/DTD/sodipodi-0.dtd"
   xmlns:inkscape="http://www.inkscape.org/namespaces/inkscape"
   width="72"
   height="72"
   id="svg2"
   version="1.1"
   inkscape:version="0.47 r22583"
   sodipodi:docname="ic_launcher.svg">
  <defs
     id="defs4">
    <inkscape:perspective
       sodipodi:type="inkscape:persp3d"
       inkscape:vp_x="0 : 526.18109 : 1"
       inkscape:vp_y="0 : 1000 : 0"
       inkscape:vp_z="744.09448 : 526.18109 : 1"
       inkscape:persp3d-origin="372.04724 : 350.78739 : 1"
       id="perspective10" />
    <inkscape:perspective
       id="perspective3487"
       inkscape:persp3d-origin="0.5 : 0.33333333 : 1"
       inkscape:vp_z="1 : 0.5 : 1"
       inkscape:vp_y="0 : 1000 : 0"
       inkscape:vp_x="0 : 0.5 : 1"
       sodipodi:type="inkscape:persp3d" />
    <inkscape:perspective
       id="perspective4782"
       inkscape:persp3d-origin="0.5 : 0.33333333 : 1"
       inkscape:vp_z="1 : 0.5 : 1"
       inkscape:vp_y="0 : 1000 : 0"
       inkscape:vp_x="0 : 0.5 : 1"
       sodipodi:type="inkscape:persp3d" />
    <filter
       id="filter2855"
       inkscape:label="Colorize"
       inkscape:menu="Color"
       inkscape:menu-tooltip="Blend image or object with a flood color and set lightness and contrast"
       x="0"
       y="0"
       width="1"
       height="1"
       color-interpolation-filters="sRGB">
      <feColorMatrix
         id="feColorMatrix2857"
         values="1"
         in="SourceGraphic"
         type="saturate"
         result="result2" />
      <feFlood
         id="feFlood2859"
         flood-color="rgb(0,212,255)"
         flood-opacity="1"
         result="result1" />
      <feBlend
         id="feBlend2861"
         in2="result2"
         mode="multiply"
         in="result1"
         result="result3" />
      <feComposite
         id="feComposite2863"
         in2="SourceGraphic"
         operator="in"
         result="result4" />
    </filter>
    <filter
       id="filter2835"
       inkscape:label="Colorize"
       inkscape:menu="Color"
       inkscape:menu-tooltip="Blend image or object with a flood color and set lightness and contrast"
       x="0"
       y="0"
       width="1"
       height="1"
       color-interpolation-filters="sRGB">
      <feColorMatrix
         id="feColorMatrix2837"
         values="1"
         type="saturate"
         result="result2" />
      <feFlood
         id="feFlood2839"
         flood-color="rgb(0,212,255)"
         flood-opacity="1"
         result="result1" />
      <feBlend
         id="feBlend2841"
         in2="result2"
         mode="multiply"
         in="result1"
         result="result3" />
      <feComposite
         id="feComposite2843"
         in2="SourceGraphic"
         operator="in"
         result="result4" />
    </filter>
    <linearGradient
       inkscape:collect="always"
       xlink:href="#RSSg"
       id="linearGradient6384"
       gradientUnits="userSpaceOnUse"
       gradientTransform="matrix(0.5,0,0,0.5,-1.3085938e-6,-3.1875e-5)"
       x1="30.059999"
       y1="30.059999"
       x2="225.94"
       y2="225.94" />
    <linearGradient
       gradientTransform="scale(0.5,0.5)"
       gradientUnits="userSpaceOnUse"
       x1="30.059999"
       y1="30.059999"
       x2="225.94"
       y2="225.94"
       id="RSSg">
      <stop
         offset="0.0"
         stop-color="#808080"
         id="stop6296" />
      <stop
         offset="0.2785"
         stop-color="#929292"
         id="stop6298" />
      <stop
         offset="0.5"
         stop-color="#9B9B9B"
         id="stop6300" />
      <stop
         offset="0.5871"
         stop-color="#919191"
         id="stop6302" />
      <stop
         offset="0.8427"
         stop-color="#797979"
         id="stop6304" />
      <stop
         offset="1.0"
         stop-color="#707070"
         id="stop6306" />
    </linearGradient>
    <filter
       id="filter2845"
       inkscape:label="Colorize"
       inkscape:menu="Color"
       inkscape:menu-tooltip="Blend image or object with a flood color and set lightness and contrast"
       x="0"
       y="0"
       width="1"
       height="1"
       color-interpolation-filters="sRGB">
      <feColorMatrix
         id="feColorMatrix2847"
         values="1"
         in="SourceGraphic"
         type="saturate"
         result="result2" />
      <feFlood
         id="feFlood2849"
         flood-color="rgb(0,212,255)"
         flood-opacity="1"
         result="result1" />
      <feBlend
         id="feBlend2851"
         in2="result2"
         mode="multiply"
         in="result1"
         result="result3" />
      <feComposite
         id="feComposite2853"
         in2="SourceGraphic"
         operator="in"
         result="result4" />
    </filter>
    <inkscape:perspective
       id="perspective2858"
       inkscape:persp3d-origin="0.5 : 0.33333333 : 1"
       inkscape:vp_z="1 : 0.5 : 1"
       inkscape:vp_y="0 : 1000 : 0"
       inkscape:vp_x="0 : 0.5 : 1"
       sodipodi:type="inkscape:persp3d" />
    <linearGradient
       inkscape:collect="always"
       xlink:href="#RSSg-0"
       id="linearGradient6384-5"
       gradientUnits="userSpaceOnUse"
       gradientTransform="matrix(0.5,0,0,0.5,35.999984,503.64788)"
       x1="30.059999"
       y1="30.059999"
       x2="225.94"
       y2="225.94" />
    <linearGradient
       gradientTransform="scale(0.5,0.5)"
       gradientUnits="userSpaceOnUse"
       x1="30.059999"
       y1="30.059999"
       x2="225.94"
       y2="225.94"
       id="RSSg-0">
      <stop
         offset="0.0"
         stop-color="#808080"
         id="stop6296-0" />
      <stop
         offset="0.2785"
         stop-color="#929292"
         id="stop6298-4" />
      <stop
         offset="0.5"
         stop-color="#9B9B9B"
         id="stop6300-3" />
      <stop
         offset="0.5871"
         stop-color="#919191"
         id="stop6302-0" />
      <stop
         offset="0.8427"
         stop-color="#797979"
         id="stop6304-4" />
      <stop
         offset="1.0"
         stop-color="#707070"
         id="stop6306-0" />
    </linearGradient>
    <filter
       id="filter2845-1"
       inkscape:label="Colorize"
       inkscape:menu="Color"
       inkscape:menu-tooltip="Blend image or object with a flood color and set lightness and contrast"
       x="0"
       y="0"
       width="1"
       height="1"
       color-interpolation-filters="sRGB">
      <feColorMatrix
         id="feColorMatrix2847-0"
         values="1"
         in="SourceGraphic"
         type="saturate"
         result="result2" />
      <feFlood
         id="feFlood2849-8"
         flood-color="rgb(0,212,255)"
         flood-opacity="1"
         result="result1" />
      <feBlend
         id="feBlend2851-3"
         in2="result2"
         mode="multiply"
         in="result1"
         result="result3" />
      <feComposite
         id="feComposite2853-4"
         in2="SourceGraphic"
         operator="in"
         result="result4" />
    </filter>
    <filter
       id="filter2835-2"
       inkscape:label="Colorize"
       inkscape:menu="Color"
       inkscape:menu-tooltip="Blend image or object with a flood color and set lightness and contrast"
       x="0"
       y="0"
       width="1"
       height="1"
       color-interpolation-filters="sRGB">
      <feColorMatrix
         id="feColorMatrix2837-8"
         values="1"
         type="saturate"
         result="result2" />
      <feFlood
         id="feFlood2839-2"
         flood-color="rgb(0,212,255)"
         flood-opacity="1"
         result="result1" />
      <feBlend
         id="feBlend2841-9"
         in2="result2"
         mode="multiply"
         in="result1"
         result="result3" />
      <feComposite
         id="feComposite2843-9"
         in2="SourceGraphic"
         operator="in"
         result="result4" />
    </filter>
    <filter
       id="filter2855-3"
       inkscape:label="Colorize"
       inkscape:menu="Color"
       inkscape:menu-tooltip="Blend image or object with a flood color and set lightness and contrast"
       x="0"
       y="0"
       width="1"
       height="1"
       color-interpolation-filters="sRGB">
      <feColorMatrix
         id="feColorMatrix2857-4"
         values="1"
         in="SourceGraphic"
         type="saturate"
         result="result2" />
      <feFlood
         id="feFlood2859-8"
         flood-color="rgb(0,212,255)"
         flood-opacity="1"
         result="result1" />
      <feBlend
         id="feBlend2861-9"
         in2="result2"
         mode="multiply"
         in="result1"
         result="result3" />
      <feComposite
         id="feComposite2863-6"
         in2="SourceGraphic"
         operator="in"
         result="result4" />
    </filter>
  </defs>
  <sodipodi:namedview
     id="base"
     pagecolor="#ffffff"
     bordercolor="#666666"
     borderopacity="1.0"
     inkscape:pageopacity="0.0"
     inkscape:pageshadow="2"
     inkscape:zoom="12.513889"
     inkscape:cx="38.264258"
     inkscape:cy="38.358439"
     inkscape:document-units="px"
     inkscape:current-layer="layer1"
     showgrid="true"
     inkscape:window-width="1395"
     inkscape:window-height="1152"
     inkscape:window-x="492"
     inkscape:window-y="0"
     inkscape:window-maximized="0">
    <inkscape:grid
       type="xygrid"
       id="grid4288"
       empspacing="8"
       visible="true"
       enabled="true"
       snapvisiblegridlinesonly="true"
       spacingx="1px"
       spacingy="1px" />
  </sodipodi:namedview>
  <metadata
     id="metadata7">
    <rdf:RDF>
      <cc:Work
         rdf:about="">
        <dc:format>image/svg+xml</dc:format>
        <dc:type
           rdf:resource="http://purl.org/dc/dcmitype/StillImage" />
        <dc:title />
      </cc:Work>
    </rdf:RDF>
  </metadata>
  <g
     inkscape:label="Layer 1"
     inkscape:groupmode="layer"
     id="layer1"
     transform="translate(-105.99998,-528.6479)">
    <rect
       style="fill:#777777;display:inline;filter:url(#filter2855-3)"
       width="128"
       height="128"
       rx="27.5"
       ry="27.5"
       x="35.999981"
       y="503.64789"
       id="rect6308"
       inkscape:export-xdpi="33.75"
       inkscape:export-ydpi="33.75"
       transform="matrix(0.53124999,0,0,0.53125005,88.87499,263.08493)" />
    <rect
       style="fill:#999999;display:inline;filter:url(#filter2835-2)"
       width="123"
       height="123"
       rx="25"
       ry="25"
       x="38.499981"
       y="506.14789"
       id="rect6310"
       inkscape:export-filename="/home/wingel/Downloads/rect6308.png"
       inkscape:export-xdpi="33.75"
       inkscape:export-ydpi="33.75"
       transform="matrix(0.53124999,0,0,0.53125005,88.87499,263.08493)" />
    <rect
       style="fill:url(#linearGradient6384-5);display:inline;filter:url(#filter2845-1)"
       width="118"
       height="118"
       rx="23.5"
       ry="23.5"
       x="40.999981"
       y="508.64789"
       id="rect6312"
       inkscape:export-filename="/home/wingel/Downloads/rect6308.png"
       inkscape:export-xdpi="33.75"
       inkscape:export-ydpi="33.75"
       transform="matrix(0.53124999,0,0,0.53125005,88.87499,263.08493)" />
    <circle
       style="fill:#ffffff;display:inline"
       sodipodi:ry="24"
       sodipodi:rx="24"
       sodipodi:cy="189"
       sodipodi:cx="68"
       transform="matrix(0.26562498,0,0,0.26562503,107.99998,530.64788)"
       cx="68"
       cy="189"
       r="24"
       id="circle6314"
       d="m 92,189 c 0,13.25483 -10.745166,24 -24,24 -13.254834,0 -24,-10.74517 -24,-24 0,-13.25483 10.745166,-24 24,-24 13.254834,0 24,10.74517 24,24 z" />
    <path
       style="fill:#ffffff;display:inline"
       d="m 150.49998,587.22602 -9.03125,0 a 21.781249,21.781253 0 0 0 -21.78125,-21.78126 l 0,-9.03125 a 30.812498,30.812503 0 0 1 30.8125,30.81251 z"
       id="path6316" />
    <path
       style="fill:#ffffff;display:inline"
       d="m 156.87498,587.22602 a 37.187497,37.187504 0 0 0 -37.1875,-37.18751 l 0,-9.29687 a 46.484373,46.484379 0 0 1 46.48437,46.48438 z"
       id="path6318" />
    <path
       transform="matrix(0.58746779,0,0,0.62598059,-79.791094,362.23097)"
       style="font-size:121.96548462000001223px;font-style:normal;font-variant:normal;font-weight:bold;font-stretch:normal;text-align:start;line-height:100%;letter-spacing:0px;word-spacing:0px;writing-mode:lr-tb;text-anchor:start;fill:#ff0000;fill-opacity:1;stroke:#000000;display:inline;font-family:Ballantines-Medium;-inkscape-font-specification:Ballantines-Medium Bold;stroke-opacity:1;stroke-width:1.15431829;stroke-miterlimit:4;stroke-dasharray:none;stroke-linejoin:round;stroke-linecap:round"
       sodipodi:type="inkscape:offset"
       inkscape:radius="1.0830271"
       inkscape:original="M 368.3125 288.4375 C 361.72782 288.43756 355.50082 290.90561 349.75 295.65625 C 344.07661 300.343 339.85534 305.0012 337.09375 309.6875 C 334.42847 314.35177 333.03125 318.86474 333.03125 323.21875 C 333.03125 326.02613 333.96218 328.50217 335.75 330.46875 A 0.98832518 0.98832518 0 0 0 335.78125 330.5 C 337.66669 332.38546 340.11907 333.37502 342.9375 333.375 C 344.76781 333.37502 346.66375 333.02594 348.625 332.34375 A 0.98832518 0.98832518 0 0 0 348.65625 332.34375 C 350.69704 331.57847 352.46585 330.46613 353.9375 329.09375 L 354 329.0625 L 358.5625 325.1875 A 0.98832518 0.98832518 0 0 0 358.6875 325.09375 C 359.31602 324.38142 359.78078 323.7784 360.125 323.25 C 360.46922 322.7216 360.74996 322.30043 360.75 321.65625 A 0.98832518 0.98832518 0 0 0 360.5 321 L 360.28125 320.75 A 0.98832518 0.98832518 0 0 0 359.28125 320.4375 C 358.2135 320.70447 357.41302 321.55193 356.5 322.78125 C 356.47067 322.82075 356.43583 322.83467 356.40625 322.875 C 355.233 324.09025 353.69229 325.09184 351.8125 325.84375 A 0.98832518 0.98832518 0 0 0 351.71875 325.875 C 350.15108 326.69617 348.48085 327.09377 346.59375 327.09375 C 344.4502 327.09377 342.9527 326.47316 341.84375 325.15625 C 340.72681 323.82992 340.15624 321.96448 340.15625 319.4375 C 340.15624 316.47129 341.06884 313.20404 342.96875 309.5625 C 344.93325 305.94786 348.06926 302.06482 352.40625 297.96875 C 356.74241 293.86914 361.24325 291.90631 366.09375 291.90625 C 368.30341 291.90628 369.75949 292.49133 370.75 293.625 C 371.74051 294.75867 372.31248 296.56724 372.3125 299.1875 C 372.31246 300.97157 371.59407 304.32461 370.0625 309 C 368.56567 313.56921 365.2627 320.06347 360.25 328.3125 C 360.24461 328.32136 360.25539 328.33488 360.25 328.34375 L 354.78125 336.84375 A 0.98832518 0.98832518 0 0 0 354.75 336.90625 L 351.4375 343.125 A 0.98832518 0.98832518 0 0 0 351.4375 343.15625 L 349.5 346.9375 A 0.98832518 0.98832518 0 0 0 349.46875 347 L 348.25 350.0625 A 0.98832518 0.98832518 0 0 0 348.1875 350.21875 L 347.8125 351.78125 A 0.98832518 0.98832518 0 0 0 347.84375 352.3125 C 348.09031 353.05225 348.82492 353.75 349.65625 353.75 A 0.98832518 0.98832518 0 0 0 349.8125 353.71875 C 350.41571 353.61821 350.85541 353.21025 351.15625 352.78125 C 351.45709 352.35225 351.68612 351.86634 351.90625 351.25 C 351.92425 351.19959 352.13575 350.82389 352.53125 350.34375 C 352.92675 349.86361 353.48006 349.23869 354.21875 348.5 C 355.69223 347.02652 357.84054 345.04678 360.625 342.625 L 360.65625 342.625 L 367.34375 336.90625 C 371.36061 333.5452 374.95305 330.09422 378.15625 326.5625 C 380.43944 324.07173 384.01856 319.59782 387.9375 314.5625 L 385.90625 319.96875 C 385.44025 321.28895 385.19131 322.11155 385.15625 322.90625 C 385.15397 322.95794 385.09374 323.04233 385.09375 323.09375 L 382.8125 335.1875 L 382.8125 335.25 L 380.65625 343.40625 L 380.625 343.46875 L 378.34375 350.25 A 0.98832518 0.98832518 0 0 0 378.3125 350.34375 L 378.1875 350.9375 A 0.98832518 0.98832518 0 0 0 378.40625 351.8125 L 379.03125 352.53125 A 0.98832518 0.98832518 0 0 0 380.3125 352.71875 C 381.23315 352.1433 381.76339 351.15368 382.125 349.9375 C 382.5792 348.83435 384.17037 346.66572 386.8125 343.78125 C 386.81895 343.77421 386.80604 343.75705 386.8125 343.75 L 391.3125 339.1875 L 391.34375 339.15625 L 395.8125 334.8125 A 0.98832518 0.98832518 0 0 0 395.8125 334.78125 L 404.71875 325.875 C 408.47333 322.12037 411.29022 319.11636 413.125 316.78125 L 413.09375 316.78125 C 414.96867 314.49868 416.35604 312.6452 417.28125 311.21875 C 417.29007 311.20552 417.30371 311.20071 417.3125 311.1875 C 418.29154 309.71651 419.11837 308.33653 419.78125 307.09375 A 0.98832518 0.98832518 0 0 0 419.8125 307.03125 C 420.21179 306.15267 420.5971 305.24527 421 304.28125 C 421.01077 304.25971 421.02056 304.2403 421.03125 304.21875 C 422.45053 301.35893 423.21864 298.44343 423.21875 295.53125 C 423.2187 293.4392 422.76404 291.72065 421.71875 290.5 C 420.67346 289.27935 419.07734 288.68753 417.21875 288.6875 C 415.76975 288.68758 414.42008 289.42509 413.3125 290.625 C 412.23885 291.7881 411.56239 293.00387 411.5625 294.3125 C 411.56233 294.65251 411.64611 294.93873 411.75 295.25 A 0.98832518 0.98832518 0 0 0 412 295.625 C 412.27005 295.89528 412.50911 296.05827 412.75 296.21875 A 0.98832518 0.98832518 0 0 0 413.375 296.40625 L 414.53125 296.3125 C 415.07212 296.31252 415.26333 296.39625 415.46875 296.6875 C 415.67417 296.97875 415.84371 297.61126 415.84375 298.59375 C 415.84368 300.77398 415.26312 303.29766 414 306.21875 C 412.72327 309.17105 411.26736 311.78812 409.6875 314 C 408.1877 316.21015 405.90412 319.02236 402.84375 322.40625 C 402.8369 322.41383 402.85061 322.42992 402.84375 322.4375 L 393.34375 332.625 L 393.3125 332.65625 L 391.375 334.5625 C 391.586 334.11081 391.67514 333.89926 391.90625 333.40625 A 0.98832518 0.98832518 0 0 0 391.90625 333.375 C 392.64827 331.47857 393.52115 329.03012 394.5 326.09375 C 395.4954 323.02442 396.39173 318.69297 397.28125 313.0625 C 397.28725 313.04449 397.27586 313.01707 397.28125 313 C 397.28697 312.96373 397.30678 312.94263 397.3125 312.90625 C 397.35233 312.76751 397.37768 312.65624 397.4375 312.40625 C 397.51581 312.07902 397.64768 311.61448 397.78125 311.03125 C 398.04839 309.86478 398.41808 308.19666 398.90625 306 C 399.47319 303.57004 399.88069 301.98278 400.09375 301.34375 C 401.0403 298.91057 401.94272 297.30728 402.53125 296.71875 A 0.98832518 0.98832518 0 0 0 402.625 296.625 L 404.09375 294.65625 A 0.98832518 0.98832518 0 0 0 403.875 293.25 L 403.375 292.90625 A 0.98832518 0.98832518 0 0 0 402.28125 292.875 L 401.3125 293.46875 A 0.98832518 0.98832518 0 0 0 401.15625 293.59375 L 399.4375 295.1875 A 0.98832518 0.98832518 0 0 0 399.375 295.25 L 395.59375 299.53125 A 0.98832518 0.98832518 0 0 0 395.5625 299.59375 L 392.03125 304.21875 A 0.98832518 0.98832518 0 0 0 392 304.25 L 387.625 310.59375 C 384.97156 314.29244 381.47998 318.53405 377.1875 323.3125 C 372.96072 328.01776 369.11494 331.78528 365.625 334.65625 L 368.96875 330.4375 A 0.98832518 0.98832518 0 0 0 368.96875 330.40625 C 370.68553 328.19892 372.05279 326.3483 373.125 324.78125 A 0.98832518 0.98832518 0 0 0 373.15625 324.71875 C 373.87779 323.51614 374.66251 322.30306 375.46875 321.09375 C 377.78137 317.62478 379.45807 314.24229 380.46875 310.96875 C 380.47148 310.95991 380.46603 310.94634 380.46875 310.9375 C 381.5476 307.69162 382.0937 304.62613 382.09375 301.75 C 382.0937 297.81081 380.84125 294.52887 378.375 292.0625 A 0.98832518 0.98832518 0 0 0 378.34375 292 C 375.71745 289.63644 372.32663 288.43756 368.3125 288.4375 z "
       id="path3698"
       d="m 368.3125,287.34375 c -6.8553,6e-5 -13.34522,2.59093 -19.25,7.46875 -5.74168,4.74317 -10.05895,9.48076 -12.90625,14.3125 a 1.0831354,1.0831354 0 0 0 0,0.0312 c -2.73369,4.78399 -4.21875,9.47679 -4.21875,14.0625 0,3.0468 1.03369,5.80583 3,7.96875 a 1.0831354,1.0831354 0 0 0 0.0312,0.0312 c -4.9e-4,-5.1e-4 0.0146,0.0146 0.0312,0.0312 0.008,0.008 -0.006,0.0251 0,0.0312 l 0.0312,0 c 2.08131,2.07133 4.84361,3.18752 7.90625,3.1875 1.87777,2e-5 3.79033,-0.37822 5.75,-1.03125 a 1.0831354,1.0831354 0 0 0 0.1875,-0.0312 c 0.0323,-0.0111 0.0614,-0.02 0.0937,-0.0312 a 1.0831354,1.0831354 0 0 0 0.0625,-0.0312 c 2.08216,-0.7808 3.90232,-1.92633 5.4375,-3.3125 A 1.0831354,1.0831354 0 0 0 354.5,330 c 0.0227,-0.0206 0.0711,-0.0105 0.0937,-0.0312 a 1.0831354,1.0831354 0 0 0 0.0937,-0.0937 l 4.46875,-3.78125 L 359.25,326 c 0.006,-0.004 0.0316,-2.4e-4 0.0312,0 -0.002,0.002 0.12687,-0.0954 0.125,-0.0937 a 1.0831354,1.0831354 0 0 0 0.0937,-0.0937 c 0.6539,-0.74109 1.14937,-1.38253 1.53125,-1.96875 0.34088,-0.52328 0.81244,-1.22869 0.8125,-2.1875 0,0.003 -0.0315,-0.19035 -0.0312,-0.1875 2.6e-4,0.003 -5.2e-4,-0.19032 0,-0.1875 5.2e-4,0.003 -0.0633,-0.19026 -0.0625,-0.1875 7.7e-4,0.003 -0.0635,-0.19018 -0.0625,-0.1875 0.001,0.003 -0.0638,-0.15883 -0.0625,-0.15625 0.001,0.003 -0.0952,-0.1587 -0.0937,-0.15625 0.001,0.002 -0.0955,-0.15856 -0.0937,-0.15625 0.002,0.002 -0.12691,-0.15839 -0.125,-0.15625 l -0.21875,-0.25 c 0.001,0.002 -0.0953,-0.0953 -0.0937,-0.0937 0.002,0.002 -0.0954,-0.0952 -0.0937,-0.0937 0.002,0.001 -0.12675,-0.0951 -0.125,-0.0937 0.002,0.001 -0.12684,-0.095 -0.125,-0.0937 0.002,0.001 -0.12692,-0.0636 -0.125,-0.0625 0.002,0.001 -0.12699,-0.0634 -0.125,-0.0625 0.002,9.4e-4 -0.12705,-0.0633 -0.125,-0.0625 0.002,8e-4 -0.1271,-0.0632 -0.125,-0.0625 0.002,6.6e-4 -0.15839,-0.0318 -0.15625,-0.0312 0.002,5.1e-4 -0.12718,-0.0316 -0.125,-0.0312 0.002,3.6e-4 -0.15844,-2.1e-4 -0.15625,0 0.002,2.1e-4 -0.1272,-0.0313 -0.125,-0.0312 0.002,5e-5 -0.15845,10e-5 -0.15625,0 0.002,-10e-5 -0.15844,0.0315 -0.15625,0.0312 0.002,-2.6e-4 -0.12717,4.1e-4 -0.125,0 0.002,-3.3e-4 -0.0897,0.0234 -0.125,0.0312 -0.008,0.002 -0.0317,1.1e-4 -0.0312,0 -1.45184,0.37379 -2.4294,1.47682 -3.375,2.75 -1.05071,1.08832 -2.45742,2.01422 -4.21875,2.71875 -0.0425,0.0142 -0.095,0.0317 -0.0937,0.0312 a 1.0831354,1.0831354 0 0 0 -0.0937,0.0312 c -1.41487,0.74113 -2.89003,1.09377 -4.625,1.09375 -1.9345,2e-5 -2.99874,-0.45356 -3.90625,-1.53125 -0.9117,-1.08262 -1.43751,-2.6673 -1.4375,-5.03125 -10e-6,-2.73365 0.82796,-5.82834 2.65625,-9.34375 0.006,-0.0114 0.025,-0.0198 0.0312,-0.0312 1.89046,-3.46644 4.95473,-7.28535 9.21875,-11.3125 4.1897,-3.96114 8.37917,-5.74994 12.9375,-5.75 2.0185,3e-5 3.07778,0.46708 3.84375,1.34375 0.75092,0.85945 1.28123,2.38109 1.28125,4.84375 -3e-5,1.49337 -0.67243,4.84372 -2.1875,9.46875 -1.44461,4.4098 -4.72741,10.87987 -9.71875,19.09375 -5e-5,8e-5 0.001,0.0285 0,0.0312 5e-5,-8e-5 0.001,0.0287 0,0.0312 -0.003,0.007 -0.0266,0.021 -0.0312,0.0312 L 353.875,336.25 a 1.0831354,1.0831354 0 0 0 -0.0312,0.0625 c 6.6e-4,-0.001 -0.0431,0.055 -0.0625,0.0937 -0.012,0.024 -0.0316,0.0633 -0.0312,0.0625 l -3.28125,6.15625 a 1.0831354,1.0831354 0 0 0 0,0.0312 1.0831354,1.0831354 0 0 0 -0.0625,0.15625 l -1.84375,3.59375 -0.0312,0.0312 c -0.0181,0.0362 -0.0632,0.12655 -0.0625,0.125 a 1.0831354,1.0831354 0 0 0 0,0.0312 l -1.1875,2.96875 -0.0312,0.0937 c -0.0184,0.0408 -0.0317,0.095 -0.0312,0.0937 10e-4,-0.002 -0.0633,0.15882 -0.0625,0.15625 a 1.0831354,1.0831354 0 0 0 -0.0312,0.0625 l -0.375,1.5625 a 1.0831354,1.0831354 0 0 0 0,0.0312 c 4.6e-4,-0.002 -0.0316,0.12713 -0.0312,0.125 3.1e-4,-0.002 -1.7e-4,0.15839 0,0.15625 1.7e-4,-0.002 -2e-5,0.12715 0,0.125 2e-5,-0.002 1.3e-4,0.1584 0,0.15625 -1.3e-4,-0.002 2.7e-4,0.12713 0,0.125 -2.7e-4,-0.002 0.0317,0.15836 0.0312,0.15625 -4.2e-4,-0.002 0.0318,0.12708 0.0312,0.125 -5.6e-4,-0.002 0.0319,0.12703 0.0312,0.125 0.38601,1.15814 1.40642,2.1875 2.84375,2.1875 a 1.0831354,1.0831354 0 0 0 0.125,-0.0312 c -0.003,3e-4 0.15875,-5e-4 0.15625,0 -8.7e-4,1.7e-4 0.0363,-0.0249 0.0625,-0.0312 0.0463,-0.008 0.0801,-0.0215 0.125,-0.0312 l 0,-0.0312 c 0.90561,-0.2019 1.52646,-0.77092 1.90625,-1.3125 0.37321,-0.5322 0.66673,-1.11062 0.90625,-1.78125 0.0149,-0.0242 0.0104,-0.0305 0.0312,-0.0625 0.0836,-0.12812 0.2364,-0.32505 0.40625,-0.53125 0.37354,-0.45348 0.91106,-1.03606 1.625,-1.75 1.41085,-1.41085 3.50843,-3.3836 6.1875,-5.71875 0.007,-0.006 0.0239,0.006 0.0312,0 a 1.0831354,1.0831354 0 0 0 0.125,-0.125 1.0831354,1.0831354 0 0 0 0.0312,0 l 6.65625,-5.6875 0.0312,-0.0312 c 4.039,-3.38212 7.67742,-6.87752 10.90625,-10.4375 1.36978,-1.49431 3.7104,-4.52152 5.75,-7.0625 -0.32425,0.9669 -0.62107,1.82753 -0.65625,2.625 -0.007,0.0199 -0.0248,0.0352 -0.0312,0.0625 -0.0179,0.0763 -0.0313,0.0316 -0.0312,0.1875 l -2.25,11.875 0,0.0312 a 1.0831354,1.0831354 0 0 0 -0.0312,0.0937 l -2.125,8.03125 -2.25,6.71875 -0.0312,0.0625 c -0.0194,0.0584 -0.0318,0.15837 -0.0312,0.15625 a 1.0831354,1.0831354 0 0 0 -0.0312,0.0625 l -0.125,0.5625 0,0.0312 c -0.007,0.0332 -0.0315,0.0952 -0.0312,0.0937 3.2e-4,-0.002 -2.1e-4,0.12686 0,0.125 2.1e-4,-0.002 -10e-5,0.12687 0,0.125 10e-5,-0.002 2e-5,0.12687 0,0.125 -2e-5,-0.002 1.3e-4,0.12687 0,0.125 -1.3e-4,-0.002 2.4e-4,0.12685 0,0.125 -2.4e-4,-0.002 0.0316,0.0956 0.0312,0.0937 -3.5e-4,-0.002 4.5e-4,0.12681 0,0.125 -4.5e-4,-0.002 0.0631,0.12678 0.0625,0.125 -5.6e-4,-0.002 0.0319,0.12675 0.0312,0.125 -6.6e-4,-0.002 0.032,0.0955 0.0312,0.0937 -7.7e-4,-0.002 0.0634,0.12666 0.0625,0.125 -8.7e-4,-0.002 0.0635,0.0953 0.0625,0.0937 -9.6e-4,-0.002 0.0636,0.12654 0.0625,0.125 -0.001,-0.002 0.0636,0.0952 0.0625,0.0937 -0.001,-0.001 0.095,0.0952 0.0937,0.0937 l 0.625,0.71875 c -0.002,-0.002 0.12702,0.12696 0.125,0.125 -0.002,-0.002 0.12719,0.12677 0.125,0.125 -0.002,-0.002 0.15859,0.0953 0.15625,0.0937 -0.002,-0.002 0.15872,0.0951 0.15625,0.0937 -0.002,-0.001 0.15883,0.0949 0.15625,0.0937 -0.003,-0.001 0.19017,0.0634 0.1875,0.0625 -0.003,-9e-4 0.19024,0.0632 0.1875,0.0625 -0.003,-6.6e-4 0.15904,0.0317 0.15625,0.0312 -0.003,-4.1e-4 0.19031,0.0314 0.1875,0.0312 -0.003,-1.6e-4 0.19032,-9e-5 0.1875,0 -0.003,9e-5 0.1903,-0.0316 0.1875,-0.0312 -0.003,3.4e-4 0.19026,-0.0318 0.1875,-0.0312 -0.003,5.9e-4 0.19019,-0.0321 0.1875,-0.0312 -0.003,8.4e-4 0.15886,-0.0636 0.15625,-0.0625 -0.003,0.001 0.19,-0.0951 0.1875,-0.0937 -0.002,0.001 0.0912,-0.0743 0.125,-0.0937 0.0131,-0.008 0.0182,-0.0229 0.0312,-0.0312 1.18076,-0.75598 1.82274,-1.95953 2.21875,-3.25 0.30542,-0.7418 1.89421,-2.99895 4.5,-5.84375 l 0,-0.0312 c -6e-5,7e-5 0.0283,-0.0257 0.0312,-0.0312 l 4.4375,-4.46875 0,-0.0312 0.0312,0 4.4375,-4.34375 a 1.0831354,1.0831354 0 0 0 0.0312,-0.0312 1.0831354,1.0831354 0 0 0 0.125,-0.125 L 405.5,326.65625 c 3.75401,-3.75406 6.5488,-6.78791 8.4375,-9.1875 0.0117,-0.0142 0.0196,-0.017 0.0312,-0.0312 a 1.0831354,1.0831354 0 0 0 0.125,-0.1875 c 1.77249,-2.16972 3.13857,-3.98523 4.0625,-5.40625 0.006,-0.009 0.0253,-0.0221 0.0312,-0.0312 0.0133,-0.0177 0.0179,-0.0112 0.0312,-0.0312 0.98757,-1.48381 1.82097,-2.88622 2.5,-4.15625 -2.5e-4,4.6e-4 0.0257,-0.0201 0.0312,-0.0312 0.0181,-0.0362 0.0632,-0.12655 0.0625,-0.125 0.39754,-0.87472 0.76184,-1.77572 1.15625,-2.71875 0.01,-0.0195 0.0186,-0.0371 0.0312,-0.0625 1.48041,-2.98299 2.31238,-6.05366 2.3125,-9.15625 -5e-5,-2.24895 -0.51022,-4.26574 -1.78125,-5.75 -1.28708,-1.50301 -3.22401,-2.18747 -5.3125,-2.1875 -1.81645,10e-5 -3.43251,0.92164 -4.6875,2.28125 -1.175,1.2729 -2.06264,2.75559 -2.0625,4.4375 -2.6e-4,0.51822 0.13835,0.94672 0.25,1.28125 a 1.0831354,1.0831354 0 0 0 0.0312,0.0312 c -6.4e-4,-0.002 0.032,0.12666 0.0312,0.125 -7.3e-4,-0.002 0.0633,0.0954 0.0625,0.0937 -8.3e-4,-0.002 0.0322,0.0953 0.0312,0.0937 -9.2e-4,-0.002 0.0635,0.12651 0.0625,0.125 -0.001,-0.002 0.0948,0.0952 0.0937,0.0937 -0.001,-0.001 0.0637,0.0951 0.0625,0.0937 -0.001,-0.001 0.095,0.0951 0.0937,0.0937 -6.3e-4,-6.6e-4 0.01,0.01 0.0312,0.0312 0.0125,0.0125 0.0188,0.019 0.0312,0.0312 0.31588,0.30925 0.64049,0.53079 0.875,0.6875 -6e-4,-4.4e-4 0.0147,0.0203 0.0312,0.0312 0.0425,0.0281 0.0954,0.0635 0.0937,0.0625 -0.002,-0.001 0.15863,0.0949 0.15625,0.0937 -0.002,-0.001 0.15872,0.0635 0.15625,0.0625 -0.002,-9.7e-4 0.19004,0.0633 0.1875,0.0625 -0.003,-7.6e-4 0.15885,0.0318 0.15625,0.0312 -0.003,-5.5e-4 0.15888,0.0316 0.15625,0.0312 -0.003,-3.3e-4 0.19015,0.0313 0.1875,0.0312 -0.003,-10e-5 0.19015,-1.2e-4 0.1875,0 a 1.0831354,1.0831354 0 0 0 0.0312,0 l 1.0625,-0.0937 c 0.0715,0 0.0263,-0.003 0.0625,0 -0.0175,8.5e-4 0.15622,0.39144 0.15625,1.1875 -6e-5,1.988 -0.52909,4.36402 -1.75,7.1875 -1.25022,2.891 -2.65957,5.45458 -4.1875,7.59375 a 1.0831354,1.0831354 0 0 0 -0.0312,0.0312 c -1.45267,2.1407 -3.71008,4.91997 -6.75,8.28125 -4e-5,5e-5 0.001,0.0288 0,0.0312 -0.003,0.006 -0.0214,0.0441 -0.0312,0.0625 l -7.78125,8.3125 c 0.43484,-1.22083 0.82295,-2.18768 1.3125,-3.65625 1.016,-3.13285 1.89856,-7.47647 2.78125,-13.03125 0.005,-0.0339 -0.005,-0.0597 0,-0.0937 0.006,-0.036 0.0255,-0.0576 0.0312,-0.0937 0.004,-0.0137 -0.003,-0.016 0,-0.0312 a 1.0831354,1.0831354 0 0 0 0,-0.0312 c 0.011,-0.04 0.0236,-0.045 0.0312,-0.0937 0.0305,-0.1163 0.082,-0.22678 0.125,-0.40625 0.0683,-0.28522 0.20349,-0.76255 0.34375,-1.375 0.26876,-1.17354 0.6369,-2.8349 1.125,-5.03125 0.55637,-2.38467 0.94654,-3.95465 1.125,-4.5 0.0134,-0.0345 0.0178,-0.0283 0.0312,-0.0625 0.9089,-2.30966 1.90712,-3.90712 2.1875,-4.1875 0.0258,-0.0241 0.032,-0.0632 0.0312,-0.0625 -0.002,0.002 0.0951,-0.0953 0.0937,-0.0937 a 1.0831354,1.0831354 0 0 0 0.0625,-0.0625 l 1.46875,-1.96875 c -0.002,0.003 0.0954,-0.19021 0.0937,-0.1875 -0.002,0.003 0.12638,-0.15911 0.125,-0.15625 -0.001,0.003 0.0636,-0.22173 0.0625,-0.21875 -0.001,0.003 0.0633,-0.19057 0.0625,-0.1875 -7.8e-4,0.003 0.0317,-0.19064 0.0312,-0.1875 -4.6e-4,0.003 0.0314,-0.22192 0.0312,-0.21875 -1.5e-4,0.003 -1.7e-4,-0.22192 0,-0.21875 1.7e-4,0.003 -0.0317,-0.19063 -0.0312,-0.1875 4.9e-4,0.003 -0.0321,-0.22182 -0.0312,-0.21875 8e-4,0.003 -0.0636,-0.19047 -0.0625,-0.1875 0.001,0.003 -0.0951,-0.19035 -0.0937,-0.1875 0.001,0.003 -0.0954,-0.19019 -0.0937,-0.1875 0.002,0.003 -0.12694,-0.19001 -0.125,-0.1875 0.002,0.003 -0.12718,-0.15856 -0.125,-0.15625 0.002,0.002 -0.15865,-0.12708 -0.15625,-0.125 0.002,0.002 -0.15884,-0.12682 -0.15625,-0.125 a 1.0831354,1.0831354 0 0 0 0,-0.0312 L 404,292 l 0,0.0312 c 0.002,0.001 -0.12698,-0.0949 -0.125,-0.0937 0.002,0.001 -0.12707,-0.0636 -0.125,-0.0625 0.002,0.001 -0.15839,-0.0634 -0.15625,-0.0625 0.002,8.9e-4 -0.1272,-0.0632 -0.125,-0.0625 0.002,7.3e-4 -0.15849,-0.0318 -0.15625,-0.0312 0.002,5.7e-4 -0.15853,-0.0317 -0.15625,-0.0312 0.002,4e-4 -0.15855,-0.0315 -0.15625,-0.0312 0.002,2.4e-4 -0.12731,-7e-5 -0.125,0 0.002,7e-5 -0.15856,10e-5 -0.15625,0 0.002,-10e-5 -0.15855,2.7e-4 -0.15625,0 0.002,-2.7e-4 -0.15852,0.0317 -0.15625,0.0312 0.002,-4.4e-4 -0.15848,0.0319 -0.15625,0.0312 0.002,-6.1e-4 -0.12718,0.032 -0.125,0.0312 0.002,-7.7e-4 -0.15837,0.0634 -0.15625,0.0625 0.002,-9.3e-4 -0.12705,0.0636 -0.125,0.0625 0.002,-0.001 -0.12696,0.095 -0.125,0.0937 l 0,-0.0312 -0.96875,0.59375 a 1.0831354,1.0831354 0 0 0 -0.0312,0.0312 c 0.003,-0.002 -0.15875,0.127 -0.15625,0.125 0.002,-0.002 -0.15853,0.12724 -0.15625,0.125 l -1.6875,1.5625 -0.0312,0.0312 c -0.0334,0.0335 -0.12652,0.12667 -0.125,0.125 l -3.78125,4.28125 a 1.0831354,1.0831354 0 0 0 -0.0937,0.125 1.0831354,1.0831354 0 0 0 -0.0312,0.0625 l -3.4375,4.5 -0.0625,0.0625 a 1.0831354,1.0831354 0 0 0 -0.0625,0.0625 l -4.375,6.34375 0.0312,0 c -2.61973,3.65171 -6.10033,7.86637 -10.375,12.625 -0.60239,0.67058 -1.13232,1.18067 -1.71875,1.8125 0.5583,-0.89845 1.11369,-1.8112 1.71875,-2.71875 2.35884,-3.5383 4.07675,-7.01104 5.125,-10.40625 0.007,-0.0231 -0.006,-0.0102 0,-0.0312 1.10217,-3.32479 1.68745,-6.49585 1.6875,-9.5 -5e-5,-4.08523 -1.3353,-7.62201 -3.90625,-10.28125 a 1.0831354,1.0831354 0 0 0 -0.0312,-0.0625 c -0.006,-0.006 0.006,-0.0254 0,-0.0312 a 1.0831354,1.0831354 0 0 0 -0.0937,-0.0937 1.0831354,1.0831354 0 0 0 -0.0937,-0.0937 c -2.83548,-2.55181 -6.52024,-3.84369 -10.75,-3.84375 z" />
  </g>
</svg>
