<?xml version="1.0" encoding="UTF-8" standalone="no"?>
<!-- Created with Inkscape (http://www.inkscape.org/) -->

<svg
   xmlns:dc="http://purl.org/dc/elements/1.1/"
   xmlns:cc="http://creativecommons.org/ns#"
   xmlns:rdf="http://www.w3.org/1999/02/22-rdf-syntax-ns#"
   xmlns:svg="http://www.w3.org/2000/svg"
   xmlns="http://www.w3.org/2000/svg"
   xmlns:xlink="http://www.w3.org/1999/xlink"
   xmlns:sodipodi="http://sodipodi.sourceforge.net/DTD/sodipodi-0.dtd"
   xmlns:inkscape="http://www.inkscape.org/namespaces/inkscape"
   width="128"
   height="128"
   id="svg5324"
   version="1.1"
   inkscape:version="0.47 r22583"
   sodipodi:docname="logo.svg"
   inkscape:export-filename="/home/wingel/Downloads/weader-icon.png"
   inkscape:export-xdpi="33.75"
   inkscape:export-ydpi="33.75">
  <defs
     id="defs5326">
    <inkscape:perspective
       sodipodi:type="inkscape:persp3d"
       inkscape:vp_x="0 : 526.18109 : 1"
       inkscape:vp_y="0 : 1000 : 0"
       inkscape:vp_z="744.09448 : 526.18109 : 1"
       inkscape:persp3d-origin="372.04724 : 350.78739 : 1"
       id="perspective5332" />
    <inkscape:perspective
       id="perspective5296"
       inkscape:persp3d-origin="0.5 : 0.33333333 : 1"
       inkscape:vp_z="1 : 0.5 : 1"
       inkscape:vp_y="0 : 1000 : 0"
       inkscape:vp_x="0 : 0.5 : 1"
       sodipodi:type="inkscape:persp3d" />
    <inkscape:perspective
       id="perspective5356"
       inkscape:persp3d-origin="0.5 : 0.33333333 : 1"
       inkscape:vp_z="1 : 0.5 : 1"
       inkscape:vp_y="0 : 1000 : 0"
       inkscape:vp_x="0 : 0.5 : 1"
       sodipodi:type="inkscape:persp3d" />
    <inkscape:perspective
       id="perspective5949"
       inkscape:persp3d-origin="0.5 : 0.33333333 : 1"
       inkscape:vp_z="1 : 0.5 : 1"
       inkscape:vp_y="0 : 1000 : 0"
       inkscape:vp_x="0 : 0.5 : 1"
       sodipodi:type="inkscape:persp3d" />
    <inkscape:perspective
       id="perspective6334"
       inkscape:persp3d-origin="0.5 : 0.33333333 : 1"
       inkscape:vp_z="1 : 0.5 : 1"
       inkscape:vp_y="0 : 1000 : 0"
       inkscape:vp_x="0 : 0.5 : 1"
       sodipodi:type="inkscape:persp3d" />
    <linearGradient
       gradientTransform="scale(0.5,0.5)"
       gradientUnits="userSpaceOnUse"
       x1="30.059999"
       y1="30.059999"
       x2="225.94"
       y2="225.94"
       id="RSSg">
      <stop
         offset="0.0"
         stop-color="#808080"
         id="stop6296" />
      <stop
         offset="0.2785"
         stop-color="#929292"
         id="stop6298" />
      <stop
         offset="0.5"
         stop-color="#9B9B9B"
         id="stop6300" />
      <stop
         offset="0.5871"
         stop-color="#919191"
         id="stop6302" />
      <stop
         offset="0.8427"
         stop-color="#797979"
         id="stop6304" />
      <stop
         offset="1.0"
         stop-color="#707070"
         id="stop6306" />
    </linearGradient>
    <linearGradient
       inkscape:collect="always"
       xlink:href="#RSSg"
       id="linearGradient6384"
       gradientUnits="userSpaceOnUse"
       gradientTransform="matrix(0.5,0,0,0.5,299.14984,269.63864)"
       x1="30.059999"
       y1="30.059999"
       x2="225.94"
       y2="225.94" />
    <filter
       id="filter2835"
       inkscape:label="Colorize"
       inkscape:menu="Color"
       inkscape:menu-tooltip="Blend image or object with a flood color and set lightness and contrast"
       x="0"
       y="0"
       width="1"
       height="1"
       color-interpolation-filters="sRGB">
      <feColorMatrix
         id="feColorMatrix2837"
         values="1"
         type="saturate"
         result="result2" />
      <feFlood
         id="feFlood2839"
         flood-color="rgb(0,212,255)"
         flood-opacity="1"
         result="result1" />
      <feBlend
         id="feBlend2841"
         in2="result2"
         mode="multiply"
         in="result1"
         result="result3" />
      <feComposite
         id="feComposite2843"
         in2="SourceGraphic"
         operator="in"
         k2="1"
         result="result4" />
    </filter>
    <filter
       id="filter2845"
       inkscape:label="Colorize"
       inkscape:menu="Color"
       inkscape:menu-tooltip="Blend image or object with a flood color and set lightness and contrast"
       x="0"
       y="0"
       width="1"
       height="1"
       color-interpolation-filters="sRGB">
      <feColorMatrix
         id="feColorMatrix2847"
         values="1"
         in="SourceGraphic"
         type="saturate"
         result="result2" />
      <feFlood
         id="feFlood2849"
         flood-color="rgb(0,212,255)"
         flood-opacity="1"
         result="result1" />
      <feBlend
         id="feBlend2851"
         in2="result2"
         mode="multiply"
         in="result1"
         result="result3" />
      <feComposite
         id="feComposite2853"
         in2="SourceGraphic"
         operator="in"
         k2="1"
         result="result4" />
    </filter>
    <filter
       id="filter2855"
       inkscape:label="Colorize"
       inkscape:menu="Color"
       inkscape:menu-tooltip="Blend image or object with a flood color and set lightness and contrast"
       x="0"
       y="0"
       width="1"
       height="1"
       color-interpolation-filters="sRGB">
      <feColorMatrix
         id="feColorMatrix2857"
         values="1"
         in="SourceGraphic"
         type="saturate"
         result="result2" />
      <feFlood
         id="feFlood2859"
         flood-color="rgb(0,212,255)"
         flood-opacity="1"
         result="result1" />
      <feBlend
         id="feBlend2861"
         in2="result2"
         mode="multiply"
         in="result1"
         result="result3" />
      <feComposite
         id="feComposite2863"
         in2="SourceGraphic"
         operator="in"
         k2="1"
         result="result4" />
    </filter>
    <inkscape:perspective
       id="perspective3730"
       inkscape:persp3d-origin="0.5 : 0.33333333 : 1"
       inkscape:vp_z="1 : 0.5 : 1"
       inkscape:vp_y="0 : 1000 : 0"
       inkscape:vp_x="0 : 0.5 : 1"
       sodipodi:type="inkscape:persp3d" />
  </defs>
  <sodipodi:namedview
     id="base"
     pagecolor="#ffffff"
     bordercolor="#666666"
     borderopacity="1.0"
     inkscape:pageopacity="0.0"
     inkscape:pageshadow="2"
     inkscape:zoom="3.959798"
     inkscape:cx="52.648847"
     inkscape:cy="63.692025"
     inkscape:document-units="px"
     inkscape:current-layer="g3746"
     showgrid="false"
     inkscape:window-width="1280"
     inkscape:window-height="1152"
     inkscape:window-x="607"
     inkscape:window-y="0"
     inkscape:window-maximized="0"
     showguides="true"
     inkscape:guide-bbox="true" />
  <metadata
     id="metadata5329">
    <rdf:RDF>
      <cc:Work
         rdf:about="">
        <dc:format>image/svg+xml</dc:format>
        <dc:type
           rdf:resource="http://purl.org/dc/dcmitype/StillImage" />
        <dc:title />
      </cc:Work>
    </rdf:RDF>
  </metadata>
  <g
     inkscape:label="feed"
     inkscape:groupmode="layer"
     id="layer1"
     style="display:inline"
     transform="translate(-299.14984,-269.63867)"
     sodipodi:insensitive="true">
    <rect
       style="fill:#777777;filter:url(#filter2855)"
       width="128"
       height="128"
       rx="27.5"
       ry="27.5"
       x="299.14984"
       y="269.63867"
       id="rect6308"
       inkscape:export-xdpi="33.75"
       inkscape:export-ydpi="33.75" />
    <rect
       style="fill:#999999;filter:url(#filter2835)"
       width="123"
       height="123"
       rx="25"
       ry="25"
       x="301.64984"
       y="272.13867"
       id="rect6310"
       inkscape:export-filename="/home/wingel/Downloads/rect6308.png"
       inkscape:export-xdpi="33.75"
       inkscape:export-ydpi="33.75" />
    <rect
       style="fill:url(#linearGradient6384);filter:url(#filter2845)"
       width="118"
       height="118"
       rx="23.5"
       ry="23.5"
       x="304.14984"
       y="274.63867"
       id="rect6312"
       inkscape:export-filename="/home/wingel/Downloads/rect6308.png"
       inkscape:export-xdpi="33.75"
       inkscape:export-ydpi="33.75" />
    <circle
       style="fill:#ffffff"
       sodipodi:ry="24"
       sodipodi:rx="24"
       sodipodi:cy="189"
       sodipodi:cx="68"
       transform="matrix(0.5,0,0,0.5,299.14984,269.63864)"
       cx="68"
       cy="189"
       r="24"
       id="circle6314"
       d="m 92,189 c 0,13.25483 -10.745166,24 -24,24 -13.254834,0 -24,-10.74517 -24,-24 0,-13.25483 10.745166,-24 24,-24 13.254834,0 24,10.74517 24,24 z" />
    <path
       style="fill:#ffffff"
       d="m 379.14984,376.13864 h -17 a 41,41 0 0 0 -41,-41 v -17 a 58,58 0 0 1 58,58 z"
       id="path6316" />
    <path
       style="fill:#ffffff"
       d="m 391.14984,376.13864 a 70,70 0 0 0 -70,-70 v -17.5 a 87.5,87.5 0 0 1 87.5,87.5 z"
       id="path6318" />
  </g>
  <g
     inkscape:groupmode="layer"
     id="layer3"
     inkscape:label="bg">
    <path
       transform="matrix(1.1058218,0,0,1.1783163,-353.4891,-317.02007)"
       style="font-size:121.96548462px;font-style:normal;font-variant:normal;font-weight:bold;font-stretch:normal;text-align:start;line-height:100%;letter-spacing:0px;word-spacing:0px;writing-mode:lr-tb;text-anchor:start;fill:#000000;fill-opacity:1;stroke:none;display:inline;font-family:Ballantines-Medium;-inkscape-font-specification:Ballantines-Medium Bold"
       sodipodi:type="inkscape:offset"
       inkscape:radius="1.0830271"
       inkscape:original="M 368.3125 288.4375 C 361.72782 288.43756 355.50082 290.90561 349.75 295.65625 C 344.07661 300.343 339.85534 305.0012 337.09375 309.6875 C 334.42847 314.35177 333.03125 318.86474 333.03125 323.21875 C 333.03125 326.02613 333.96218 328.50217 335.75 330.46875 A 0.98832518 0.98832518 0 0 0 335.78125 330.5 C 337.66669 332.38546 340.11907 333.37502 342.9375 333.375 C 344.76781 333.37502 346.66375 333.02594 348.625 332.34375 A 0.98832518 0.98832518 0 0 0 348.65625 332.34375 C 350.69704 331.57847 352.46585 330.46613 353.9375 329.09375 L 354 329.0625 L 358.5625 325.1875 A 0.98832518 0.98832518 0 0 0 358.6875 325.09375 C 359.31602 324.38142 359.78078 323.7784 360.125 323.25 C 360.46922 322.7216 360.74996 322.30043 360.75 321.65625 A 0.98832518 0.98832518 0 0 0 360.5 321 L 360.28125 320.75 A 0.98832518 0.98832518 0 0 0 359.28125 320.4375 C 358.2135 320.70447 357.41302 321.55193 356.5 322.78125 C 356.47067 322.82075 356.43583 322.83467 356.40625 322.875 C 355.233 324.09025 353.69229 325.09184 351.8125 325.84375 A 0.98832518 0.98832518 0 0 0 351.71875 325.875 C 350.15108 326.69617 348.48085 327.09377 346.59375 327.09375 C 344.4502 327.09377 342.9527 326.47316 341.84375 325.15625 C 340.72681 323.82992 340.15624 321.96448 340.15625 319.4375 C 340.15624 316.47129 341.06884 313.20404 342.96875 309.5625 C 344.93325 305.94786 348.06926 302.06482 352.40625 297.96875 C 356.74241 293.86914 361.24325 291.90631 366.09375 291.90625 C 368.30341 291.90628 369.75949 292.49133 370.75 293.625 C 371.74051 294.75867 372.31248 296.56724 372.3125 299.1875 C 372.31246 300.97157 371.59407 304.32461 370.0625 309 C 368.56567 313.56921 365.2627 320.06347 360.25 328.3125 C 360.24461 328.32136 360.25539 328.33488 360.25 328.34375 L 354.78125 336.84375 A 0.98832518 0.98832518 0 0 0 354.75 336.90625 L 351.4375 343.125 A 0.98832518 0.98832518 0 0 0 351.4375 343.15625 L 349.5 346.9375 A 0.98832518 0.98832518 0 0 0 349.46875 347 L 348.25 350.0625 A 0.98832518 0.98832518 0 0 0 348.1875 350.21875 L 347.8125 351.78125 A 0.98832518 0.98832518 0 0 0 347.84375 352.3125 C 348.09031 353.05225 348.82492 353.75 349.65625 353.75 A 0.98832518 0.98832518 0 0 0 349.8125 353.71875 C 350.41571 353.61821 350.85541 353.21025 351.15625 352.78125 C 351.45709 352.35225 351.68612 351.86634 351.90625 351.25 C 351.92425 351.19959 352.13575 350.82389 352.53125 350.34375 C 352.92675 349.86361 353.48006 349.23869 354.21875 348.5 C 355.69223 347.02652 357.84054 345.04678 360.625 342.625 L 360.65625 342.625 L 367.34375 336.90625 C 371.36061 333.5452 374.95305 330.09422 378.15625 326.5625 C 380.43944 324.07173 384.01856 319.59782 387.9375 314.5625 L 385.90625 319.96875 C 385.44025 321.28895 385.19131 322.11155 385.15625 322.90625 C 385.15397 322.95794 385.09374 323.04233 385.09375 323.09375 L 382.8125 335.1875 L 382.8125 335.25 L 380.65625 343.40625 L 380.625 343.46875 L 378.34375 350.25 A 0.98832518 0.98832518 0 0 0 378.3125 350.34375 L 378.1875 350.9375 A 0.98832518 0.98832518 0 0 0 378.40625 351.8125 L 379.03125 352.53125 A 0.98832518 0.98832518 0 0 0 380.3125 352.71875 C 381.23315 352.1433 381.76339 351.15368 382.125 349.9375 C 382.5792 348.83435 384.17037 346.66572 386.8125 343.78125 C 386.81895 343.77421 386.80604 343.75705 386.8125 343.75 L 391.3125 339.1875 L 391.34375 339.15625 L 395.8125 334.8125 A 0.98832518 0.98832518 0 0 0 395.8125 334.78125 L 404.71875 325.875 C 408.47333 322.12037 411.29022 319.11636 413.125 316.78125 L 413.09375 316.78125 C 414.96867 314.49868 416.35604 312.6452 417.28125 311.21875 C 417.29007 311.20552 417.30371 311.20071 417.3125 311.1875 C 418.29154 309.71651 419.11837 308.33653 419.78125 307.09375 A 0.98832518 0.98832518 0 0 0 419.8125 307.03125 C 420.21179 306.15267 420.5971 305.24527 421 304.28125 C 421.01077 304.25971 421.02056 304.2403 421.03125 304.21875 C 422.45053 301.35893 423.21864 298.44343 423.21875 295.53125 C 423.2187 293.4392 422.76404 291.72065 421.71875 290.5 C 420.67346 289.27935 419.07734 288.68753 417.21875 288.6875 C 415.76975 288.68758 414.42008 289.42509 413.3125 290.625 C 412.23885 291.7881 411.56239 293.00387 411.5625 294.3125 C 411.56233 294.65251 411.64611 294.93873 411.75 295.25 A 0.98832518 0.98832518 0 0 0 412 295.625 C 412.27005 295.89528 412.50911 296.05827 412.75 296.21875 A 0.98832518 0.98832518 0 0 0 413.375 296.40625 L 414.53125 296.3125 C 415.07212 296.31252 415.26333 296.39625 415.46875 296.6875 C 415.67417 296.97875 415.84371 297.61126 415.84375 298.59375 C 415.84368 300.77398 415.26312 303.29766 414 306.21875 C 412.72327 309.17105 411.26736 311.78812 409.6875 314 C 408.1877 316.21015 405.90412 319.02236 402.84375 322.40625 C 402.8369 322.41383 402.85061 322.42992 402.84375 322.4375 L 393.34375 332.625 L 393.3125 332.65625 L 391.375 334.5625 C 391.586 334.11081 391.67514 333.89926 391.90625 333.40625 A 0.98832518 0.98832518 0 0 0 391.90625 333.375 C 392.64827 331.47857 393.52115 329.03012 394.5 326.09375 C 395.4954 323.02442 396.39173 318.69297 397.28125 313.0625 C 397.28725 313.04449 397.27586 313.01707 397.28125 313 C 397.28697 312.96373 397.30678 312.94263 397.3125 312.90625 C 397.35233 312.76751 397.37768 312.65624 397.4375 312.40625 C 397.51581 312.07902 397.64768 311.61448 397.78125 311.03125 C 398.04839 309.86478 398.41808 308.19666 398.90625 306 C 399.47319 303.57004 399.88069 301.98278 400.09375 301.34375 C 401.0403 298.91057 401.94272 297.30728 402.53125 296.71875 A 0.98832518 0.98832518 0 0 0 402.625 296.625 L 404.09375 294.65625 A 0.98832518 0.98832518 0 0 0 403.875 293.25 L 403.375 292.90625 A 0.98832518 0.98832518 0 0 0 402.28125 292.875 L 401.3125 293.46875 A 0.98832518 0.98832518 0 0 0 401.15625 293.59375 L 399.4375 295.1875 A 0.98832518 0.98832518 0 0 0 399.375 295.25 L 395.59375 299.53125 A 0.98832518 0.98832518 0 0 0 395.5625 299.59375 L 392.03125 304.21875 A 0.98832518 0.98832518 0 0 0 392 304.25 L 387.625 310.59375 C 384.97156 314.29244 381.47998 318.53405 377.1875 323.3125 C 372.96072 328.01776 369.11494 331.78528 365.625 334.65625 L 368.96875 330.4375 A 0.98832518 0.98832518 0 0 0 368.96875 330.40625 C 370.68553 328.19892 372.05279 326.3483 373.125 324.78125 A 0.98832518 0.98832518 0 0 0 373.15625 324.71875 C 373.87779 323.51614 374.66251 322.30306 375.46875 321.09375 C 377.78137 317.62478 379.45807 314.24229 380.46875 310.96875 C 380.47148 310.95991 380.46603 310.94634 380.46875 310.9375 C 381.5476 307.69162 382.0937 304.62613 382.09375 301.75 C 382.0937 297.81081 380.84125 294.52887 378.375 292.0625 A 0.98832518 0.98832518 0 0 0 378.34375 292 C 375.71745 289.63644 372.32663 288.43756 368.3125 288.4375 z "
       id="path3698"
       d="m 368.3125,287.34375 c -6.8553,6e-5 -13.34522,2.59093 -19.25,7.46875 -5.74168,4.74317 -10.05895,9.48076 -12.90625,14.3125 a 1.0831354,1.0831354 0 0 0 0,0.0312 c -2.73369,4.78399 -4.21875,9.47679 -4.21875,14.0625 0,3.0468 1.03369,5.80583 3,7.96875 a 1.0831354,1.0831354 0 0 0 0.0312,0.0312 c -4.9e-4,-5.1e-4 0.0146,0.0146 0.0312,0.0312 0.008,0.008 -0.006,0.0251 0,0.0312 l 0.0312,0 c 2.08131,2.07133 4.84361,3.18752 7.90625,3.1875 1.87777,2e-5 3.79033,-0.37822 5.75,-1.03125 a 1.0831354,1.0831354 0 0 0 0.1875,-0.0312 c 0.0323,-0.0111 0.0614,-0.02 0.0937,-0.0312 a 1.0831354,1.0831354 0 0 0 0.0625,-0.0312 c 2.08216,-0.7808 3.90232,-1.92633 5.4375,-3.3125 A 1.0831354,1.0831354 0 0 0 354.5,330 c 0.0227,-0.0206 0.0711,-0.0105 0.0937,-0.0312 a 1.0831354,1.0831354 0 0 0 0.0937,-0.0937 l 4.46875,-3.78125 L 359.25,326 c 0.006,-0.004 0.0316,-2.4e-4 0.0312,0 -0.002,0.002 0.12687,-0.0954 0.125,-0.0937 a 1.0831354,1.0831354 0 0 0 0.0937,-0.0937 c 0.6539,-0.74109 1.14937,-1.38253 1.53125,-1.96875 0.34088,-0.52328 0.81244,-1.22869 0.8125,-2.1875 0,0.003 -0.0315,-0.19035 -0.0312,-0.1875 2.6e-4,0.003 -5.2e-4,-0.19032 0,-0.1875 5.2e-4,0.003 -0.0633,-0.19026 -0.0625,-0.1875 7.7e-4,0.003 -0.0635,-0.19018 -0.0625,-0.1875 0.001,0.003 -0.0638,-0.15883 -0.0625,-0.15625 0.001,0.003 -0.0952,-0.1587 -0.0937,-0.15625 0.001,0.002 -0.0955,-0.15856 -0.0937,-0.15625 0.002,0.002 -0.12691,-0.15839 -0.125,-0.15625 l -0.21875,-0.25 c 0.001,0.002 -0.0953,-0.0953 -0.0937,-0.0937 0.002,0.002 -0.0954,-0.0952 -0.0937,-0.0937 0.002,0.001 -0.12675,-0.0951 -0.125,-0.0937 0.002,0.001 -0.12684,-0.095 -0.125,-0.0937 0.002,0.001 -0.12692,-0.0636 -0.125,-0.0625 0.002,0.001 -0.12699,-0.0634 -0.125,-0.0625 0.002,9.4e-4 -0.12705,-0.0633 -0.125,-0.0625 0.002,8e-4 -0.1271,-0.0632 -0.125,-0.0625 0.002,6.6e-4 -0.15839,-0.0318 -0.15625,-0.0312 0.002,5.1e-4 -0.12718,-0.0316 -0.125,-0.0312 0.002,3.6e-4 -0.15844,-2.1e-4 -0.15625,0 0.002,2.1e-4 -0.1272,-0.0313 -0.125,-0.0312 0.002,5e-5 -0.15845,10e-5 -0.15625,0 0.002,-10e-5 -0.15844,0.0315 -0.15625,0.0312 0.002,-2.6e-4 -0.12717,4.1e-4 -0.125,0 0.002,-3.3e-4 -0.0897,0.0234 -0.125,0.0312 -0.008,0.002 -0.0317,1.1e-4 -0.0312,0 -1.45184,0.37379 -2.4294,1.47682 -3.375,2.75 -1.05071,1.08832 -2.45742,2.01422 -4.21875,2.71875 -0.0425,0.0142 -0.095,0.0317 -0.0937,0.0312 a 1.0831354,1.0831354 0 0 0 -0.0937,0.0312 c -1.41487,0.74113 -2.89003,1.09377 -4.625,1.09375 -1.9345,2e-5 -2.99874,-0.45356 -3.90625,-1.53125 -0.9117,-1.08262 -1.43751,-2.6673 -1.4375,-5.03125 -10e-6,-2.73365 0.82796,-5.82834 2.65625,-9.34375 0.006,-0.0114 0.025,-0.0198 0.0312,-0.0312 1.89046,-3.46644 4.95473,-7.28535 9.21875,-11.3125 4.1897,-3.96114 8.37917,-5.74994 12.9375,-5.75 2.0185,3e-5 3.07778,0.46708 3.84375,1.34375 0.75092,0.85945 1.28123,2.38109 1.28125,4.84375 -3e-5,1.49337 -0.67243,4.84372 -2.1875,9.46875 -1.44461,4.4098 -4.72741,10.87987 -9.71875,19.09375 -5e-5,8e-5 0.001,0.0285 0,0.0312 5e-5,-8e-5 0.001,0.0287 0,0.0312 -0.003,0.007 -0.0266,0.021 -0.0312,0.0312 L 353.875,336.25 a 1.0831354,1.0831354 0 0 0 -0.0312,0.0625 c 6.6e-4,-0.001 -0.0431,0.055 -0.0625,0.0937 -0.012,0.024 -0.0316,0.0633 -0.0312,0.0625 l -3.28125,6.15625 a 1.0831354,1.0831354 0 0 0 0,0.0312 1.0831354,1.0831354 0 0 0 -0.0625,0.15625 l -1.84375,3.59375 -0.0312,0.0312 c -0.0181,0.0362 -0.0632,0.12655 -0.0625,0.125 a 1.0831354,1.0831354 0 0 0 0,0.0312 l -1.1875,2.96875 -0.0312,0.0937 c -0.0184,0.0408 -0.0317,0.095 -0.0312,0.0937 10e-4,-0.002 -0.0633,0.15882 -0.0625,0.15625 a 1.0831354,1.0831354 0 0 0 -0.0312,0.0625 l -0.375,1.5625 a 1.0831354,1.0831354 0 0 0 0,0.0312 c 4.6e-4,-0.002 -0.0316,0.12713 -0.0312,0.125 3.1e-4,-0.002 -1.7e-4,0.15839 0,0.15625 1.7e-4,-0.002 -2e-5,0.12715 0,0.125 2e-5,-0.002 1.3e-4,0.1584 0,0.15625 -1.3e-4,-0.002 2.7e-4,0.12713 0,0.125 -2.7e-4,-0.002 0.0317,0.15836 0.0312,0.15625 -4.2e-4,-0.002 0.0318,0.12708 0.0312,0.125 -5.6e-4,-0.002 0.0319,0.12703 0.0312,0.125 0.38601,1.15814 1.40642,2.1875 2.84375,2.1875 a 1.0831354,1.0831354 0 0 0 0.125,-0.0312 c -0.003,3e-4 0.15875,-5e-4 0.15625,0 -8.7e-4,1.7e-4 0.0363,-0.0249 0.0625,-0.0312 0.0463,-0.008 0.0801,-0.0215 0.125,-0.0312 l 0,-0.0312 c 0.90561,-0.2019 1.52646,-0.77092 1.90625,-1.3125 0.37321,-0.5322 0.66673,-1.11062 0.90625,-1.78125 0.0149,-0.0242 0.0104,-0.0305 0.0312,-0.0625 0.0836,-0.12812 0.2364,-0.32505 0.40625,-0.53125 0.37354,-0.45348 0.91106,-1.03606 1.625,-1.75 1.41085,-1.41085 3.50843,-3.3836 6.1875,-5.71875 0.007,-0.006 0.0239,0.006 0.0312,0 a 1.0831354,1.0831354 0 0 0 0.125,-0.125 1.0831354,1.0831354 0 0 0 0.0312,0 l 6.65625,-5.6875 0.0312,-0.0312 c 4.039,-3.38212 7.67742,-6.87752 10.90625,-10.4375 1.36978,-1.49431 3.7104,-4.52152 5.75,-7.0625 -0.32425,0.9669 -0.62107,1.82753 -0.65625,2.625 -0.007,0.0199 -0.0248,0.0352 -0.0312,0.0625 -0.0179,0.0763 -0.0313,0.0316 -0.0312,0.1875 l -2.25,11.875 0,0.0312 a 1.0831354,1.0831354 0 0 0 -0.0312,0.0937 l -2.125,8.03125 -2.25,6.71875 -0.0312,0.0625 c -0.0194,0.0584 -0.0318,0.15837 -0.0312,0.15625 a 1.0831354,1.0831354 0 0 0 -0.0312,0.0625 l -0.125,0.5625 0,0.0312 c -0.007,0.0332 -0.0315,0.0952 -0.0312,0.0937 3.2e-4,-0.002 -2.1e-4,0.12686 0,0.125 2.1e-4,-0.002 -10e-5,0.12687 0,0.125 10e-5,-0.002 2e-5,0.12687 0,0.125 -2e-5,-0.002 1.3e-4,0.12687 0,0.125 -1.3e-4,-0.002 2.4e-4,0.12685 0,0.125 -2.4e-4,-0.002 0.0316,0.0956 0.0312,0.0937 -3.5e-4,-0.002 4.5e-4,0.12681 0,0.125 -4.5e-4,-0.002 0.0631,0.12678 0.0625,0.125 -5.6e-4,-0.002 0.0319,0.12675 0.0312,0.125 -6.6e-4,-0.002 0.032,0.0955 0.0312,0.0937 -7.7e-4,-0.002 0.0634,0.12666 0.0625,0.125 -8.7e-4,-0.002 0.0635,0.0953 0.0625,0.0937 -9.6e-4,-0.002 0.0636,0.12654 0.0625,0.125 -0.001,-0.002 0.0636,0.0952 0.0625,0.0937 -0.001,-0.001 0.095,0.0952 0.0937,0.0937 l 0.625,0.71875 c -0.002,-0.002 0.12702,0.12696 0.125,0.125 -0.002,-0.002 0.12719,0.12677 0.125,0.125 -0.002,-0.002 0.15859,0.0953 0.15625,0.0937 -0.002,-0.002 0.15872,0.0951 0.15625,0.0937 -0.002,-0.001 0.15883,0.0949 0.15625,0.0937 -0.003,-0.001 0.19017,0.0634 0.1875,0.0625 -0.003,-9e-4 0.19024,0.0632 0.1875,0.0625 -0.003,-6.6e-4 0.15904,0.0317 0.15625,0.0312 -0.003,-4.1e-4 0.19031,0.0314 0.1875,0.0312 -0.003,-1.6e-4 0.19032,-9e-5 0.1875,0 -0.003,9e-5 0.1903,-0.0316 0.1875,-0.0312 -0.003,3.4e-4 0.19026,-0.0318 0.1875,-0.0312 -0.003,5.9e-4 0.19019,-0.0321 0.1875,-0.0312 -0.003,8.4e-4 0.15886,-0.0636 0.15625,-0.0625 -0.003,0.001 0.19,-0.0951 0.1875,-0.0937 -0.002,0.001 0.0912,-0.0743 0.125,-0.0937 0.0131,-0.008 0.0182,-0.0229 0.0312,-0.0312 1.18076,-0.75598 1.82274,-1.95953 2.21875,-3.25 0.30542,-0.7418 1.89421,-2.99895 4.5,-5.84375 l 0,-0.0312 c -6e-5,7e-5 0.0283,-0.0257 0.0312,-0.0312 l 4.4375,-4.46875 0,-0.0312 0.0312,0 4.4375,-4.34375 a 1.0831354,1.0831354 0 0 0 0.0312,-0.0312 1.0831354,1.0831354 0 0 0 0.125,-0.125 L 405.5,326.65625 c 3.75401,-3.75406 6.5488,-6.78791 8.4375,-9.1875 0.0117,-0.0142 0.0196,-0.017 0.0312,-0.0312 a 1.0831354,1.0831354 0 0 0 0.125,-0.1875 c 1.77249,-2.16972 3.13857,-3.98523 4.0625,-5.40625 0.006,-0.009 0.0253,-0.0221 0.0312,-0.0312 0.0133,-0.0177 0.0179,-0.0112 0.0312,-0.0312 0.98757,-1.48381 1.82097,-2.88622 2.5,-4.15625 -2.5e-4,4.6e-4 0.0257,-0.0201 0.0312,-0.0312 0.0181,-0.0362 0.0632,-0.12655 0.0625,-0.125 0.39754,-0.87472 0.76184,-1.77572 1.15625,-2.71875 0.01,-0.0195 0.0186,-0.0371 0.0312,-0.0625 1.48041,-2.98299 2.31238,-6.05366 2.3125,-9.15625 -5e-5,-2.24895 -0.51022,-4.26574 -1.78125,-5.75 -1.28708,-1.50301 -3.22401,-2.18747 -5.3125,-2.1875 -1.81645,10e-5 -3.43251,0.92164 -4.6875,2.28125 -1.175,1.2729 -2.06264,2.75559 -2.0625,4.4375 -2.6e-4,0.51822 0.13835,0.94672 0.25,1.28125 a 1.0831354,1.0831354 0 0 0 0.0312,0.0312 c -6.4e-4,-0.002 0.032,0.12666 0.0312,0.125 -7.3e-4,-0.002 0.0633,0.0954 0.0625,0.0937 -8.3e-4,-0.002 0.0322,0.0953 0.0312,0.0937 -9.2e-4,-0.002 0.0635,0.12651 0.0625,0.125 -0.001,-0.002 0.0948,0.0952 0.0937,0.0937 -0.001,-0.001 0.0637,0.0951 0.0625,0.0937 -0.001,-0.001 0.095,0.0951 0.0937,0.0937 -6.3e-4,-6.6e-4 0.01,0.01 0.0312,0.0312 0.0125,0.0125 0.0188,0.019 0.0312,0.0312 0.31588,0.30925 0.64049,0.53079 0.875,0.6875 -6e-4,-4.4e-4 0.0147,0.0203 0.0312,0.0312 0.0425,0.0281 0.0954,0.0635 0.0937,0.0625 -0.002,-0.001 0.15863,0.0949 0.15625,0.0937 -0.002,-0.001 0.15872,0.0635 0.15625,0.0625 -0.002,-9.7e-4 0.19004,0.0633 0.1875,0.0625 -0.003,-7.6e-4 0.15885,0.0318 0.15625,0.0312 -0.003,-5.5e-4 0.15888,0.0316 0.15625,0.0312 -0.003,-3.3e-4 0.19015,0.0313 0.1875,0.0312 -0.003,-10e-5 0.19015,-1.2e-4 0.1875,0 a 1.0831354,1.0831354 0 0 0 0.0312,0 l 1.0625,-0.0937 c 0.0715,0 0.0263,-0.003 0.0625,0 -0.0175,8.5e-4 0.15622,0.39144 0.15625,1.1875 -6e-5,1.988 -0.52909,4.36402 -1.75,7.1875 -1.25022,2.891 -2.65957,5.45458 -4.1875,7.59375 a 1.0831354,1.0831354 0 0 0 -0.0312,0.0312 c -1.45267,2.1407 -3.71008,4.91997 -6.75,8.28125 -4e-5,5e-5 0.001,0.0288 0,0.0312 -0.003,0.006 -0.0214,0.0441 -0.0312,0.0625 l -7.78125,8.3125 c 0.43484,-1.22083 0.82295,-2.18768 1.3125,-3.65625 1.016,-3.13285 1.89856,-7.47647 2.78125,-13.03125 0.005,-0.0339 -0.005,-0.0597 0,-0.0937 0.006,-0.036 0.0255,-0.0576 0.0312,-0.0937 0.004,-0.0137 -0.003,-0.016 0,-0.0312 a 1.0831354,1.0831354 0 0 0 0,-0.0312 c 0.011,-0.04 0.0236,-0.045 0.0312,-0.0937 0.0305,-0.1163 0.082,-0.22678 0.125,-0.40625 0.0683,-0.28522 0.20349,-0.76255 0.34375,-1.375 0.26876,-1.17354 0.6369,-2.8349 1.125,-5.03125 0.55637,-2.38467 0.94654,-3.95465 1.125,-4.5 0.0134,-0.0345 0.0178,-0.0283 0.0312,-0.0625 0.9089,-2.30966 1.90712,-3.90712 2.1875,-4.1875 0.0258,-0.0241 0.032,-0.0632 0.0312,-0.0625 -0.002,0.002 0.0951,-0.0953 0.0937,-0.0937 a 1.0831354,1.0831354 0 0 0 0.0625,-0.0625 l 1.46875,-1.96875 c -0.002,0.003 0.0954,-0.19021 0.0937,-0.1875 -0.002,0.003 0.12638,-0.15911 0.125,-0.15625 -0.001,0.003 0.0636,-0.22173 0.0625,-0.21875 -0.001,0.003 0.0633,-0.19057 0.0625,-0.1875 -7.8e-4,0.003 0.0317,-0.19064 0.0312,-0.1875 -4.6e-4,0.003 0.0314,-0.22192 0.0312,-0.21875 -1.5e-4,0.003 -1.7e-4,-0.22192 0,-0.21875 1.7e-4,0.003 -0.0317,-0.19063 -0.0312,-0.1875 4.9e-4,0.003 -0.0321,-0.22182 -0.0312,-0.21875 8e-4,0.003 -0.0636,-0.19047 -0.0625,-0.1875 0.001,0.003 -0.0951,-0.19035 -0.0937,-0.1875 0.001,0.003 -0.0954,-0.19019 -0.0937,-0.1875 0.002,0.003 -0.12694,-0.19001 -0.125,-0.1875 0.002,0.003 -0.12718,-0.15856 -0.125,-0.15625 0.002,0.002 -0.15865,-0.12708 -0.15625,-0.125 0.002,0.002 -0.15884,-0.12682 -0.15625,-0.125 a 1.0831354,1.0831354 0 0 0 0,-0.0312 L 404,292 l 0,0.0312 c 0.002,0.001 -0.12698,-0.0949 -0.125,-0.0937 0.002,0.001 -0.12707,-0.0636 -0.125,-0.0625 0.002,0.001 -0.15839,-0.0634 -0.15625,-0.0625 0.002,8.9e-4 -0.1272,-0.0632 -0.125,-0.0625 0.002,7.3e-4 -0.15849,-0.0318 -0.15625,-0.0312 0.002,5.7e-4 -0.15853,-0.0317 -0.15625,-0.0312 0.002,4e-4 -0.15855,-0.0315 -0.15625,-0.0312 0.002,2.4e-4 -0.12731,-7e-5 -0.125,0 0.002,7e-5 -0.15856,10e-5 -0.15625,0 0.002,-10e-5 -0.15855,2.7e-4 -0.15625,0 0.002,-2.7e-4 -0.15852,0.0317 -0.15625,0.0312 0.002,-4.4e-4 -0.15848,0.0319 -0.15625,0.0312 0.002,-6.1e-4 -0.12718,0.032 -0.125,0.0312 0.002,-7.7e-4 -0.15837,0.0634 -0.15625,0.0625 0.002,-9.3e-4 -0.12705,0.0636 -0.125,0.0625 0.002,-0.001 -0.12696,0.095 -0.125,0.0937 l 0,-0.0312 -0.96875,0.59375 a 1.0831354,1.0831354 0 0 0 -0.0312,0.0312 c 0.003,-0.002 -0.15875,0.127 -0.15625,0.125 0.002,-0.002 -0.15853,0.12724 -0.15625,0.125 l -1.6875,1.5625 -0.0312,0.0312 c -0.0334,0.0335 -0.12652,0.12667 -0.125,0.125 l -3.78125,4.28125 a 1.0831354,1.0831354 0 0 0 -0.0937,0.125 1.0831354,1.0831354 0 0 0 -0.0312,0.0625 l -3.4375,4.5 -0.0625,0.0625 a 1.0831354,1.0831354 0 0 0 -0.0625,0.0625 l -4.375,6.34375 0.0312,0 c -2.61973,3.65171 -6.10033,7.86637 -10.375,12.625 -0.60239,0.67058 -1.13232,1.18067 -1.71875,1.8125 0.5583,-0.89845 1.11369,-1.8112 1.71875,-2.71875 2.35884,-3.5383 4.07675,-7.01104 5.125,-10.40625 0.007,-0.0231 -0.006,-0.0102 0,-0.0312 1.10217,-3.32479 1.68745,-6.49585 1.6875,-9.5 -5e-5,-4.08523 -1.3353,-7.62201 -3.90625,-10.28125 a 1.0831354,1.0831354 0 0 0 -0.0312,-0.0625 c -0.006,-0.006 0.006,-0.0254 0,-0.0312 a 1.0831354,1.0831354 0 0 0 -0.0937,-0.0937 1.0831354,1.0831354 0 0 0 -0.0937,-0.0937 c -2.83548,-2.55181 -6.52024,-3.84369 -10.75,-3.84375 z" />
  </g>
  <g
     inkscape:label="fg"
     id="g3746"
     inkscape:groupmode="layer">
    <path
       sodipodi:type="inkscape:offset"
       inkscape:radius="-0.61631799"
       inkscape:original="M 368.3125 287.34375 C 361.4572 287.34381 354.96728 289.93468 349.0625 294.8125 C 343.32082 299.55567 339.00355 304.29326 336.15625 309.125 A 1.0831354 1.0831354 0 0 0 336.15625 309.15625 C 333.42256 313.94024 331.9375 318.63304 331.9375 323.21875 C 331.9375 326.26555 332.97119 329.02458 334.9375 331.1875 A 1.0831354 1.0831354 0 0 0 334.96875 331.21875 C 334.96826 331.21824 334.98338 331.23338 335 331.25 C 335.00831 331.25831 334.99383 331.27508 335 331.28125 L 335.03125 331.28125 C 337.11256 333.35258 339.87486 334.46877 342.9375 334.46875 C 344.81527 334.46877 346.72783 334.09053 348.6875 333.4375 A 1.0831354 1.0831354 0 0 0 348.875 333.40625 C 348.90732 333.39517 348.93641 333.38625 348.96875 333.375 A 1.0831354 1.0831354 0 0 0 349.03125 333.34375 C 351.11341 332.56295 352.93357 331.41742 354.46875 330.03125 A 1.0831354 1.0831354 0 0 0 354.5 330 C 354.52275 329.97935 354.57113 329.98951 354.59375 329.96875 A 1.0831354 1.0831354 0 0 0 354.6875 329.875 L 359.15625 326.09375 L 359.25 326 C 359.25574 325.99605 359.28157 325.99976 359.28125 326 C 359.27925 326.0015 359.40812 325.9046 359.40625 325.90625 A 1.0831354 1.0831354 0 0 0 359.5 325.8125 C 360.1539 325.07141 360.64937 324.42997 361.03125 323.84375 C 361.37213 323.32047 361.84369 322.61506 361.84375 321.65625 C 361.84375 321.65912 361.81224 321.4659 361.8125 321.46875 C 361.81276 321.4716 361.81198 321.27843 361.8125 321.28125 C 361.81302 321.28407 361.74923 321.09099 361.75 321.09375 C 361.75077 321.09651 361.68648 320.90357 361.6875 320.90625 C 361.68852 320.90893 361.62374 320.74742 361.625 320.75 C 361.62626 320.75258 361.52976 320.5913 361.53125 320.59375 C 361.53274 320.5962 361.4358 320.43519 361.4375 320.4375 C 361.4392 320.43981 361.31059 320.27911 361.3125 320.28125 L 361.09375 320.03125 C 361.09519 320.03292 360.99845 319.93593 361 319.9375 C 361.00155 319.93907 360.9046 319.84229 360.90625 319.84375 C 360.9079 319.84521 360.7795 319.74866 360.78125 319.75 C 360.783 319.75134 360.65441 319.65504 360.65625 319.65625 C 360.65809 319.65746 360.52933 319.59267 360.53125 319.59375 C 360.53317 319.59483 360.40426 319.53031 360.40625 319.53125 C 360.40824 319.53219 360.2792 319.46795 360.28125 319.46875 C 360.2833 319.46955 360.15415 319.40559 360.15625 319.40625 C 360.15835 319.40691 359.99786 319.37449 360 319.375 C 360.00214 319.37551 359.87282 319.34339 359.875 319.34375 C 359.87718 319.34411 359.71656 319.34354 359.71875 319.34375 C 359.72094 319.34396 359.59155 319.31245 359.59375 319.3125 C 359.59595 319.31255 359.4353 319.3126 359.4375 319.3125 C 359.4397 319.3124 359.27906 319.34401 359.28125 319.34375 C 359.28344 319.34349 359.15408 319.34416 359.15625 319.34375 C 359.158 319.34342 359.06654 319.36712 359.03125 319.375 C 359.02285 319.37688 358.99959 319.37511 359 319.375 C 357.54816 319.74879 356.5706 320.85182 355.625 322.125 C 354.57429 323.21332 353.16758 324.13922 351.40625 324.84375 C 351.36374 324.85791 351.31122 324.8755 351.3125 324.875 A 1.0831354 1.0831354 0 0 0 351.21875 324.90625 C 349.80388 325.64738 348.32872 326.00002 346.59375 326 C 344.65925 326.00002 343.59501 325.54644 342.6875 324.46875 C 341.7758 323.38613 341.24999 321.80145 341.25 319.4375 C 341.24999 316.70385 342.07796 313.60916 343.90625 310.09375 C 343.91245 310.08234 343.93127 310.07392 343.9375 310.0625 C 345.82796 306.59606 348.89223 302.77715 353.15625 298.75 C 357.34595 294.78886 361.53542 293.00006 366.09375 293 C 368.11225 293.00003 369.17153 293.46708 369.9375 294.34375 C 370.68842 295.2032 371.21873 296.72484 371.21875 299.1875 C 371.21872 300.68087 370.54632 304.03122 369.03125 308.65625 C 367.58664 313.06605 364.30384 319.53612 359.3125 327.75 C 359.31245 327.75008 359.31379 327.77849 359.3125 327.78125 C 359.31255 327.78117 359.31369 327.80991 359.3125 327.8125 C 359.30937 327.8193 359.28588 327.83348 359.28125 327.84375 L 353.875 336.25 A 1.0831354 1.0831354 0 0 0 353.84375 336.3125 C 353.84441 336.31129 353.80062 336.36753 353.78125 336.40625 C 353.76926 336.43022 353.74965 336.46953 353.75 336.46875 L 350.46875 342.625 A 1.0831354 1.0831354 0 0 0 350.46875 342.65625 A 1.0831354 1.0831354 0 0 0 350.40625 342.8125 L 348.5625 346.40625 L 348.53125 346.4375 C 348.51319 346.47368 348.46804 346.56405 348.46875 346.5625 A 1.0831354 1.0831354 0 0 0 348.46875 346.59375 L 347.28125 349.5625 L 347.25 349.65625 C 347.2316 349.6971 347.21825 349.75125 347.21875 349.75 C 347.21975 349.7475 347.15547 349.90882 347.15625 349.90625 A 1.0831354 1.0831354 0 0 0 347.125 349.96875 L 346.75 351.53125 A 1.0831354 1.0831354 0 0 0 346.75 351.5625 C 346.75046 351.5604 346.71844 351.68963 346.71875 351.6875 C 346.71906 351.68537 346.71858 351.84589 346.71875 351.84375 C 346.71892 351.84161 346.71873 351.9709 346.71875 351.96875 C 346.71877 351.9666 346.71888 352.12715 346.71875 352.125 C 346.71862 352.12285 346.71902 352.25213 346.71875 352.25 C 346.71848 352.24787 346.75042 352.40836 346.75 352.40625 C 346.74958 352.40414 346.78181 352.53333 346.78125 352.53125 C 346.78069 352.52917 346.8132 352.65828 346.8125 352.65625 C 347.19851 353.81439 348.21892 354.84375 349.65625 354.84375 A 1.0831354 1.0831354 0 0 0 349.78125 354.8125 C 349.77872 354.8128 349.94 354.812 349.9375 354.8125 C 349.93663 354.81267 349.97382 354.7876 350 354.78125 C 350.04627 354.77354 350.08014 354.75978 350.125 354.75 L 350.125 354.71875 C 351.03061 354.51685 351.65146 353.94783 352.03125 353.40625 C 352.40446 352.87405 352.69798 352.29563 352.9375 351.625 C 352.9524 351.60075 352.94785 351.59453 352.96875 351.5625 C 353.05235 351.43438 353.20515 351.23745 353.375 351.03125 C 353.74854 350.57777 354.28606 349.99519 355 349.28125 C 356.41085 347.8704 358.50843 345.89765 361.1875 343.5625 C 361.19481 343.55613 361.21143 343.56888 361.21875 343.5625 A 1.0831354 1.0831354 0 0 0 361.34375 343.4375 A 1.0831354 1.0831354 0 0 0 361.375 343.4375 L 368.03125 337.75 L 368.0625 337.71875 C 372.1015 334.33663 375.73992 330.84123 378.96875 327.28125 C 380.33853 325.78694 382.67915 322.75973 384.71875 320.21875 C 384.3945 321.18565 384.09768 322.04628 384.0625 322.84375 C 384.05525 322.86365 384.03767 322.87891 384.03125 322.90625 C 384.01334 322.9825 383.99997 322.93781 384 323.09375 L 381.75 334.96875 L 381.75 335 A 1.0831354 1.0831354 0 0 0 381.71875 335.09375 L 379.59375 343.125 L 377.34375 349.84375 L 377.3125 349.90625 C 377.29309 349.96463 377.28066 350.06462 377.28125 350.0625 A 1.0831354 1.0831354 0 0 0 377.25 350.125 L 377.125 350.6875 L 377.125 350.71875 C 377.11832 350.75195 377.09351 350.81391 377.09375 350.8125 C 377.09407 350.81066 377.09354 350.93936 377.09375 350.9375 C 377.09396 350.93564 377.09365 351.06437 377.09375 351.0625 C 377.09385 351.06063 377.09377 351.18937 377.09375 351.1875 C 377.09373 351.18563 377.09388 351.31437 377.09375 351.3125 C 377.09362 351.31063 377.09399 351.43935 377.09375 351.4375 C 377.09351 351.43565 377.12535 351.53309 377.125 351.53125 C 377.12465 351.52941 377.12545 351.65806 377.125 351.65625 C 377.12455 351.65444 377.18806 351.78303 377.1875 351.78125 C 377.18694 351.77947 377.21941 351.908 377.21875 351.90625 C 377.21809 351.9045 377.25077 352.00171 377.25 352 C 377.24923 351.99829 377.31337 352.12666 377.3125 352.125 C 377.31163 352.12334 377.37596 352.22035 377.375 352.21875 C 377.37404 352.21715 377.43856 352.34529 377.4375 352.34375 C 377.43644 352.34221 377.50115 352.43898 377.5 352.4375 C 377.49885 352.43602 377.59498 352.53266 377.59375 352.53125 L 378.21875 353.25 C 378.21691 353.24786 378.34577 353.37696 378.34375 353.375 C 378.34173 353.37304 378.47094 353.50177 378.46875 353.5 C 378.46656 353.49823 378.62734 353.59532 378.625 353.59375 C 378.62266 353.59218 378.78372 353.68886 378.78125 353.6875 C 378.77878 353.68614 378.94008 353.78238 378.9375 353.78125 C 378.93492 353.78012 379.12767 353.84465 379.125 353.84375 C 379.12233 353.84285 379.31524 353.90691 379.3125 353.90625 C 379.30976 353.90559 379.47154 353.93791 379.46875 353.9375 C 379.46596 353.93709 379.65906 353.96891 379.65625 353.96875 C 379.65344 353.96859 379.84657 353.96866 379.84375 353.96875 C 379.84093 353.96884 380.03405 353.93716 380.03125 353.9375 C 380.02845 353.93784 380.22151 353.90566 380.21875 353.90625 C 380.21599 353.90684 380.40894 353.87416 380.40625 353.875 C 380.40356 353.87584 380.56511 353.81143 380.5625 353.8125 C 380.55989 353.81357 380.7525 353.71745 380.75 353.71875 C 380.74787 353.71986 380.84123 353.64444 380.875 353.625 C 380.88814 353.61679 380.89324 353.60208 380.90625 353.59375 C 382.08701 352.83777 382.72899 351.63422 383.125 350.34375 C 383.43042 349.60195 385.01921 347.3448 387.625 344.5 L 387.625 344.46875 C 387.62494 344.46882 387.65334 344.44301 387.65625 344.4375 L 392.09375 339.96875 L 392.09375 339.9375 L 392.125 339.9375 L 396.5625 335.59375 A 1.0831354 1.0831354 0 0 0 396.59375 335.5625 A 1.0831354 1.0831354 0 0 0 396.71875 335.4375 L 405.5 326.65625 C 409.25401 322.90219 412.0488 319.86834 413.9375 317.46875 C 413.9492 317.45451 413.95709 317.45171 413.96875 317.4375 A 1.0831354 1.0831354 0 0 0 414.09375 317.25 C 415.86624 315.08028 417.23232 313.26477 418.15625 311.84375 C 418.16223 311.83456 418.18156 311.82166 418.1875 311.8125 C 418.20082 311.7948 418.20539 311.80133 418.21875 311.78125 C 419.20632 310.29744 420.03972 308.89503 420.71875 307.625 C 420.7185 307.62546 420.74444 307.60488 420.75 307.59375 C 420.76806 307.55757 420.81321 307.4672 420.8125 307.46875 C 421.21004 306.59403 421.57434 305.69303 421.96875 304.75 C 421.9785 304.7305 421.98738 304.71294 422 304.6875 C 423.48041 301.70451 424.31238 298.63384 424.3125 295.53125 C 424.31245 293.2823 423.80228 291.26551 422.53125 289.78125 C 421.24417 288.27824 419.30724 287.59378 417.21875 287.59375 C 415.4023 287.59385 413.78624 288.51539 412.53125 289.875 C 411.35625 291.1479 410.46861 292.63059 410.46875 294.3125 C 410.46849 294.83072 410.6071 295.25922 410.71875 295.59375 A 1.0831354 1.0831354 0 0 0 410.75 295.625 C 410.74936 295.6233 410.78198 295.75166 410.78125 295.75 C 410.78052 295.74834 410.84458 295.84537 410.84375 295.84375 C 410.84292 295.84213 410.87592 295.93907 410.875 295.9375 C 410.87408 295.93593 410.93851 296.06401 410.9375 296.0625 C 410.93649 296.06099 411.03234 296.1577 411.03125 296.15625 C 411.03016 296.1548 411.09492 296.25138 411.09375 296.25 C 411.09258 296.24862 411.18875 296.34507 411.1875 296.34375 C 411.18687 296.34309 411.19729 296.35371 411.21875 296.375 C 411.23126 296.38752 411.23753 296.39404 411.25 296.40625 C 411.56588 296.7155 411.89049 296.93704 412.125 297.09375 C 412.1244 297.09331 412.13973 297.11405 412.15625 297.125 C 412.19873 297.15315 412.25164 297.18849 412.25 297.1875 C 412.24773 297.18613 412.40863 297.28243 412.40625 297.28125 C 412.40387 297.28007 412.56497 297.34472 412.5625 297.34375 C 412.56003 297.34278 412.75254 297.40701 412.75 297.40625 C 412.74746 297.40549 412.90885 297.43805 412.90625 297.4375 C 412.90365 297.43695 413.06513 297.46908 413.0625 297.46875 C 413.05987 297.46842 413.25265 297.5001 413.25 297.5 C 413.24735 297.4999 413.44015 297.49988 413.4375 297.5 A 1.0831354 1.0831354 0 0 0 413.46875 297.5 L 414.53125 297.40625 C 414.60277 297.40625 414.55759 297.40301 414.59375 297.40625 C 414.57626 297.4071 414.74997 297.79769 414.75 298.59375 C 414.74994 300.58175 414.22091 302.95777 413 305.78125 C 411.74978 308.67225 410.34043 311.23583 408.8125 313.375 A 1.0831354 1.0831354 0 0 0 408.78125 313.40625 C 407.32858 315.54695 405.07117 318.32622 402.03125 321.6875 C 402.03121 321.68755 402.03256 321.71633 402.03125 321.71875 C 402.02794 321.72488 402.00984 321.76283 402 321.78125 L 394.21875 330.09375 C 394.65359 328.87292 395.0417 327.90607 395.53125 326.4375 C 396.54725 323.30465 397.42981 318.96103 398.3125 313.40625 C 398.31789 313.37232 398.30711 313.34652 398.3125 313.3125 C 398.31821 313.27645 398.33804 313.2549 398.34375 313.21875 C 398.3473 313.20502 398.34054 313.20272 398.34375 313.1875 A 1.0831354 1.0831354 0 0 0 398.34375 313.15625 C 398.35474 313.11625 398.36734 313.11123 398.375 313.0625 C 398.40548 312.9462 398.45705 312.83572 398.5 312.65625 C 398.56826 312.37103 398.70349 311.8937 398.84375 311.28125 C 399.11251 310.10771 399.48065 308.44635 399.96875 306.25 C 400.52512 303.86533 400.91529 302.29535 401.09375 301.75 C 401.10716 301.71552 401.11156 301.72166 401.125 301.6875 C 402.0339 299.37784 403.03212 297.78038 403.3125 297.5 C 403.33827 297.4759 403.3445 297.43675 403.34375 297.4375 C 403.34225 297.439 403.43889 297.34215 403.4375 297.34375 A 1.0831354 1.0831354 0 0 0 403.5 297.28125 L 404.96875 295.3125 C 404.96683 295.31503 405.06416 295.12229 405.0625 295.125 C 405.06084 295.12771 405.18888 294.96589 405.1875 294.96875 C 405.18612 294.97161 405.25108 294.74702 405.25 294.75 C 405.24892 294.75298 405.31328 294.55943 405.3125 294.5625 C 405.31172 294.56557 405.34421 294.37186 405.34375 294.375 C 405.34329 294.37814 405.37515 294.15308 405.375 294.15625 C 405.37485 294.15942 405.37483 293.93433 405.375 293.9375 C 405.37517 293.94067 405.34326 293.74687 405.34375 293.75 C 405.34424 293.75313 405.3117 293.52818 405.3125 293.53125 C 405.3133 293.53432 405.2489 293.34078 405.25 293.34375 C 405.2511 293.34672 405.15485 293.1534 405.15625 293.15625 C 405.15765 293.1591 405.06083 292.96606 405.0625 292.96875 C 405.06417 292.97144 404.93556 292.77874 404.9375 292.78125 C 404.93944 292.78376 404.81032 292.62269 404.8125 292.625 C 404.81468 292.62731 404.65385 292.49792 404.65625 292.5 C 404.65865 292.50208 404.49741 292.37318 404.5 292.375 A 1.0831354 1.0831354 0 0 0 404.5 292.34375 L 404 292 L 404 292.03125 C 404.00189 292.03259 403.87302 291.93631 403.875 291.9375 C 403.87698 291.93869 403.74793 291.87395 403.75 291.875 C 403.75207 291.87605 403.59161 291.81161 403.59375 291.8125 C 403.59589 291.81339 403.46655 291.74927 403.46875 291.75 C 403.47095 291.75073 403.31026 291.71818 403.3125 291.71875 C 403.31474 291.71932 403.15397 291.6871 403.15625 291.6875 C 403.15853 291.6879 402.9977 291.65601 403 291.65625 C 403.0023 291.65649 402.87269 291.65618 402.875 291.65625 C 402.87731 291.65632 402.71644 291.65635 402.71875 291.65625 C 402.72106 291.65615 402.5602 291.65652 402.5625 291.65625 C 402.5648 291.65598 402.40398 291.68794 402.40625 291.6875 C 402.40852 291.68706 402.24777 291.71936 402.25 291.71875 C 402.25223 291.71814 402.12282 291.75077 402.125 291.75 C 402.12718 291.74923 401.96663 291.81343 401.96875 291.8125 C 401.97087 291.81157 401.8417 291.87608 401.84375 291.875 C 401.8458 291.87392 401.71679 291.96998 401.71875 291.96875 L 401.71875 291.9375 L 400.75 292.53125 A 1.0831354 1.0831354 0 0 0 400.71875 292.5625 C 400.72144 292.56076 400.56 292.6895 400.5625 292.6875 C 400.565 292.6855 400.40397 292.81474 400.40625 292.8125 L 398.71875 294.375 L 398.6875 294.40625 C 398.65407 294.43976 398.56098 294.53292 398.5625 294.53125 L 394.78125 298.8125 A 1.0831354 1.0831354 0 0 0 394.6875 298.9375 A 1.0831354 1.0831354 0 0 0 394.65625 299 L 391.21875 303.5 L 391.15625 303.5625 A 1.0831354 1.0831354 0 0 0 391.09375 303.625 L 386.71875 309.96875 L 386.75 309.96875 C 384.13027 313.62046 380.64967 317.83512 376.375 322.59375 C 375.77261 323.26433 375.24268 323.77442 374.65625 324.40625 C 375.21455 323.5078 375.76994 322.59505 376.375 321.6875 C 378.73384 318.1492 380.45175 314.67646 381.5 311.28125 C 381.50713 311.25816 381.49433 311.27105 381.5 311.25 C 382.60217 307.92521 383.18745 304.75415 383.1875 301.75 C 383.18745 297.66477 381.8522 294.12799 379.28125 291.46875 A 1.0831354 1.0831354 0 0 0 379.25 291.40625 C 379.24425 291.40037 379.25576 291.38088 379.25 291.375 A 1.0831354 1.0831354 0 0 0 379.15625 291.28125 A 1.0831354 1.0831354 0 0 0 379.0625 291.1875 C 376.22702 288.63569 372.54226 287.34381 368.3125 287.34375 z "
       style="font-size:121.96548462px;font-style:normal;font-variant:normal;font-weight:bold;font-stretch:normal;text-align:start;line-height:100%;letter-spacing:0px;word-spacing:0px;writing-mode:lr-tb;text-anchor:start;fill:#d40000;fill-opacity:1;stroke:none;display:inline;font-family:Ballantines-Medium;-inkscape-font-specification:Ballantines-Medium Bold"
       id="path3752"
       d="m 368.3125,287.96875 c -6.70002,6e-5 -13.02731,2.50765 -18.84375,7.3125 -5.66576,4.68045 -9.91956,9.34572 -12.71875,14.0625 a 0.61637962,0.61637962 0 0 1 -0.0625,0.0937 0.61637962,0.61637962 0 0 1 0,0.0312 c -2.69525,4.71673 -4.125,9.29735 -4.125,13.75 0,2.89207 0.96848,5.48687 2.8125,7.53125 l 0,0.0312 c -7.2e-4,-7.2e-4 0.0229,-0.008 0.0312,0 a 0.61637962,0.61637962 0 0 1 0.0312,0.0312 c 9e-5,9e-5 -0.002,0.0276 0,0.0312 0.001,0.002 0.0291,-0.003 0.0312,0 1.96652,1.95709 4.55586,3.00002 7.46875,3 1.795,2e-5 3.64922,-0.36243 5.5625,-1 a 0.61637962,0.61637962 0 0 1 0.125,-0.0312 c 0.0248,-0.002 0.007,0.003 0.0312,0 0.0247,-0.003 0.007,0.004 0.0312,0 0.0131,-0.004 0.0208,0.003 0.0312,0 0.0244,-0.008 0.0489,-0.0265 0.0625,-0.0312 a 0.61637962,0.61637962 0 0 1 0.0312,0 c 1.99272,-0.74726 3.74483,-1.8635 5.21875,-3.1875 0.0167,-0.016 0.0152,-0.0146 0.0312,-0.0312 a 0.61637962,0.61637962 0 0 1 0.0312,-0.0312 c 0.0509,-0.0462 0.0515,-0.007 0.0937,-0.0312 0.0173,-0.0159 0.0153,0.0126 0.0312,0 0.0245,-0.0245 -0.023,-0.005 0,-0.0312 a 0.61637962,0.61637962 0 0 1 0.0625,-0.0312 0.61637962,0.61637962 0 0 1 0,-0.0312 l 4.4375,-3.75 0.0312,-0.0312 0.0625,-0.0625 a 0.61637962,0.61637962 0 0 1 0.0937,-0.0625 c 2.5e-4,-1.7e-4 0.0545,-0.0108 0.0937,-0.0312 0.006,-0.003 -0.004,-0.029 0,-0.0312 0.006,-0.004 0.0264,0.004 0.0312,0 0.0245,-0.0245 -0.023,-0.005 0,-0.0312 0.005,-0.006 0.0262,0.006 0.0312,0 0.63173,-0.7172 1.07933,-1.35643 1.4375,-1.90625 0.33423,-0.51307 0.69775,-1.058 0.71875,-1.78125 -0.003,-0.0186 0.004,-0.0386 0,-0.0625 a 0.61637962,0.61637962 0 0 1 0,-0.0625 0.61637962,0.61637962 0 0 1 0.0312,-0.0625 0.61637962,0.61637962 0 0 1 0,-0.0312 c -0.002,-0.005 7e-4,-0.0293 0,-0.0312 -0.006,-2e-5 -0.0283,-7e-5 -0.0312,0 -0.003,7e-5 -0.0312,-1.7e-4 -0.0312,0 0,-0.004 10e-6,-0.0226 0,-0.0312 -3e-5,-0.0172 5e-5,-0.0386 0,-0.0625 -0.004,-0.012 0.004,-0.0201 0,-0.0312 0,0 0,-0.0312 0,-0.0312 10e-6,3e-5 0.001,-0.028 0,-0.0312 -0.003,-0.007 -0.0309,9.6e-4 -0.0312,0 -0.002,-0.006 0.003,-0.0223 0,-0.0312 -0.006,-0.018 -0.0233,-0.0386 -0.0312,-0.0625 -0.008,-0.0239 0.006,-0.0446 0,-0.0625 -0.001,-0.004 -0.03,0.004 -0.0312,0 -0.003,-0.007 0.004,-0.0219 0,-0.0312 0,0 0,-0.0312 0,-0.0312 -0.003,-0.005 0.005,-0.0236 0,-0.0312 -0.009,-0.0152 -0.0193,-0.0113 -0.0312,-0.0312 -0.003,-0.008 0.002,-0.026 0,-0.0312 -0.001,-0.003 -0.0312,-0.0312 -0.0312,-0.0312 -0.004,-0.007 -0.0287,-0.027 -0.0312,-0.0312 -0.002,-0.004 0.004,-0.0239 0,-0.0312 0,0 -0.0312,-0.0312 -0.0312,-0.0312 -0.007,-0.012 -0.0247,-0.0203 -0.0312,-0.0312 -0.005,-0.006 0.006,-0.024 0,-0.0312 -0.005,-0.008 -0.0281,-0.026 -0.0312,-0.0312 -0.002,-0.004 -0.0312,-0.0312 -0.0312,-0.0312 -0.007,-0.009 -0.0253,-0.0238 -0.0312,-0.0312 -0.006,-0.007 0.004,-0.0265 0,-0.0312 l -0.0312,-0.0312 -0.0937,-0.0937 c 0,0 -0.06,-0.0601 -0.0625,-0.0625 l -0.0312,-0.0312 c -0.006,-0.006 0.006,-0.0253 0,-0.0312 -0.012,-0.012 -0.0537,-0.0224 -0.0625,-0.0312 -0.009,-0.009 -0.0192,-0.0505 -0.0312,-0.0625 -0.0122,-0.009 -0.0466,-0.0193 -0.0625,-0.0312 -0.0159,-0.012 -0.0195,-0.0224 -0.0312,-0.0312 -0.006,-0.004 -0.028,0.002 -0.0312,0 2e-5,10e-6 -0.001,-0.0297 0,-0.0312 -0.005,-0.004 -0.0255,0.004 -0.0312,0 -0.005,-0.002 0.006,-0.0281 0,-0.0312 -0.006,-0.003 -0.0237,0.004 -0.0312,0 -0.008,-0.006 -0.0238,0.006 -0.0312,0 -0.008,-0.004 0.007,-0.0275 0,-0.0312 -0.006,-0.005 -0.0273,0.003 -0.0312,0 -9.2e-4,-7.2e-4 -0.0279,0.003 -0.0312,0 9e-5,4e-5 -0.001,-0.0292 0,-0.0312 -0.0121,-0.006 -0.0465,0.008 -0.0625,0 -0.016,-0.008 -0.0193,-0.0253 -0.0312,-0.0312 -0.006,-0.003 -0.0276,0.002 -0.0312,0 -3e-5,-2e-5 -0.001,-0.0292 0,-0.0312 -0.0117,-0.006 -0.0465,0.008 -0.0625,0 -0.016,-0.008 -0.019,-0.0251 -0.0312,-0.0312 -0.006,-0.003 -0.0268,0.002 -0.0312,0 -8.2e-4,-4.2e-4 0.006,-0.0278 0,-0.0312 -0.006,-0.003 -0.0239,0.004 -0.0312,0 -0.008,-0.002 -0.0236,0.002 -0.0312,0 -0.016,-0.008 -0.0186,-0.0249 -0.0312,-0.0312 4e-5,10e-6 -0.0302,2.1e-4 -0.0312,0 -0.001,-6.8e-4 -0.0276,0.002 -0.0312,0 -0.0156,0 -0.0426,4e-5 -0.0625,0 -0.008,-0.002 -0.0237,0.002 -0.0312,0 0,0 1.9e-4,-0.0283 0,-0.0312 -0.006,-0.002 -0.0267,0.001 -0.0312,0 0,0 -0.001,-0.0567 0,-0.0625 0,0 -0.0625,0 -0.0625,0 -4e-5,10e-6 -0.0573,0.03 -0.0625,0.0312 -2e-5,0.003 5e-5,0.0312 0,0.0312 -0.004,10e-6 -0.0238,-10e-6 -0.0312,0 -0.005,-0.001 -0.0239,0.002 -0.0312,0 -0.007,0.001 -0.0236,-0.002 -0.0312,0 -0.008,-0.002 -0.0236,0.002 -0.0312,0 -0.0199,0.004 -0.0169,-0.003 -0.0312,0 4e-5,-10e-6 -0.0288,-5.4e-4 -0.0312,0 0,0 -10e-5,-0.0283 0,-0.0312 10e-5,-0.003 -1.9e-4,-0.0257 0,-0.0312 -4.2e-4,0.001 -0.0309,-8.8e-4 -0.0312,0 0,0 -0.0312,0 -0.0312,0 0,0 -0.0316,-0.0126 -0.0625,-0.0312 0.007,0.0256 0.0313,0.0937 0.0312,0.0937 -0.004,9.9e-4 -0.0263,-0.001 -0.0312,0 -0.01,0.003 -0.0167,0.0276 -0.0312,0.0312 -0.0291,0.007 -0.0584,-0.008 -0.0937,0 -0.0313,0.007 -0.0115,-0.003 -0.0312,0 -1.21878,0.32441 -2.08083,1.29365 -3,2.53125 a 0.61637962,0.61637962 0 0 1 -0.0625,0.0625 c -1.12031,1.16041 -2.60835,2.11209 -4.4375,2.84375 a 0.61637962,0.61637962 0 0 1 -0.0312,0.0312 c -0.0209,0.007 -0.0441,-0.006 -0.0625,0 -0.005,0.002 -0.0274,-0.001 -0.0312,0 -0.004,0.001 0.003,0.0303 0,0.0312 0,0 -0.0312,0 -0.0312,0 -0.009,0.005 -0.0225,-0.004 -0.0312,0 -1.48148,0.76357 -3.05043,1.15627 -4.84375,1.15625 -2.03084,2e-5 -3.36945,-0.55589 -4.375,-1.75 -1.02737,-1.21997 -1.59376,-2.98216 -1.59375,-5.4375 -10e-6,-2.8581 0.88854,-6.0458 2.75,-9.625 0.0158,-0.0291 0.017,-0.01 0.0312,-0.0312 0.0913,-0.16743 0.13131,-0.1925 0.125,-0.1875 1.93961,-3.49615 4.96124,-7.28976 9.1875,-11.28125 4.27143,-4.03841 8.65544,-5.93744 13.375,-5.9375 2.11357,3e-5 3.43265,0.55549 4.3125,1.5625 0.89348,1.02261 1.43748,2.69886 1.4375,5.25 -3e-5,1.67835 -0.69306,4.99881 -2.21875,9.65625 -1.46286,4.46552 -4.75332,10.89408 -9.6875,19.03125 -0.0191,0.0315 -0.0121,0.0622 -0.0312,0.0937 -0.006,0.0178 -0.0277,0.0199 -0.0312,0.0312 -0.002,0.009 0.002,0.0256 0,0.0312 -0.003,0.01 10e-6,0.0312 0,0.0312 -6e-5,1.3e-4 -0.0254,0.0206 -0.0312,0.0312 a 0.61637962,0.61637962 0 0 1 -0.0312,0.0625 0.61637962,0.61637962 0 0 1 0,0.0312 c -0.0172,0.0239 -0.0195,0.0181 -0.0312,0.0312 l -5.375,8.34375 0,0.0312 -0.15625,-0.0937 -0.40625,-0.1875 c 0,0 0.20961,0.16198 0.34375,0.28125 0.0533,0.0474 0.12501,0.12499 0.125,0.125 -0.003,0.006 0.002,0.027 0,0.0312 -4.7e-4,9.2e-4 -0.0312,-5e-5 -0.0312,0 l -3.1875,5.96875 a 0.61637962,0.61637962 0 0 1 -0.0312,0.0625 0.61637962,0.61637962 0 0 1 -0.0312,0.0937 0.61637962,0.61637962 0 0 1 0,0.0625 c -0.0195,0.0395 -0.0149,-0.01 -0.0312,0.0312 -0.0164,0.0409 0.0131,-0.0108 0,0.0312 a 0.61637962,0.61637962 0 0 1 -0.0312,0.0937 l -1.84375,3.59375 a 0.61637962,0.61637962 0 0 1 -0.0312,0.0312 0.61637962,0.61637962 0 0 1 0,0.0312 c -0.003,0.006 -0.0279,-0.007 -0.0312,0 a 0.61637962,0.61637962 0 0 1 -0.0312,0.0312 c -0.007,0.0135 0.005,0.0222 0,0.0312 a 0.61637962,0.61637962 0 0 1 0,0.0312 c 0,0 -0.0292,0.001 -0.0312,0 l -1.125,2.90625 -0.0312,0.0312 c 0,0 -0.625,-0.0312 -0.625,-0.0312 -2.1e-4,5.2e-4 0.56257,0.21858 0.5625,0.21875 -0.002,0.004 0.003,0.0238 0,0.0312 -0.006,0.0148 -0.0233,0.0425 -0.0312,0.0625 -0.008,0.02 0.006,0.0473 0,0.0625 -0.003,0.008 -0.0291,-0.005 -0.0312,0 -7.4e-4,0.002 0.003,0.0242 0,0.0312 l 0,0.0312 c 0,0 -0.0292,0.001 -0.0312,0 -0.0174,0.0322 0.0153,-0.002 0,0.0312 l -0.3125,1.3125 c -2.4e-4,0.0163 -2.4e-4,0.0149 0,0.0312 l -0.0312,0.0937 c 3.4e-4,0.0101 -3e-5,0.0288 0,0.0312 2e-5,0.006 0,0.0235 0,0.0312 0,0.008 10e-6,0.0218 0,0.0312 -10e-6,0.009 2e-5,0.0213 0,0.0312 -0.002,0.008 0.002,0.0237 0,0.0312 0.001,0.0118 -3e-5,0.0301 0,0.0312 2e-5,0.005 0,0.0251 0,0.0312 10e-6,0.0123 10e-6,0.0152 0,0.0312 -10e-6,0.016 10e-6,0.0195 0,0.0312 -10e-6,0.006 0,0.028 0,0.0312 0,0.004 -10e-6,0.0238 0,0.0312 10e-6,0.0148 -10e-6,0.0113 0,0.0312 10e-6,0.0199 10e-6,0.0474 0,0.0625 0,0.008 10e-6,0.0263 0,0.0312 0,0.002 -10e-6,0.0255 0,0.0312 0,0 -0.0283,1.2e-4 -0.0312,0 0.002,0.009 0.029,0.0198 0.0312,0.0312 0.002,0.008 -0.002,0.0233 0,0.0312 0,0.006 2e-5,0.026 0,0.0312 0.001,0.007 -8.4e-4,0.027 0,0.0312 0.003,0.0121 0.0273,0.0152 0.0312,0.0312 0.004,0.016 -0.003,0.0505 0,0.0625 0,0 -0.057,-0.001 -0.0625,0 -7.2e-4,1.9e-4 8.1e-4,0.031 0,0.0312 0.011,-0.002 0.0625,0 0.0625,0 0.003,0.0117 0.0272,0.0153 0.0312,0.0312 0.002,0.008 -0.002,0.0237 0,0.0312 0.002,0.008 -0.002,0.0251 0,0.0312 0.32325,0.94199 1.11707,1.71875 2.25,1.71875 l 0,0.0312 c 0.0236,-0.0133 0.0766,-0.0126 0.125,-0.0312 a 0.61637962,0.61637962 0 0 1 0.0312,-0.0312 0.61637962,0.61637962 0 0 1 0.0312,0 A 0.61637962,0.61637962 0 0 1 350,354.125 c 0.72395,-0.1614 1.21623,-0.61328 1.53125,-1.0625 0.3399,-0.4847 0.58887,-1.0301 0.8125,-1.65625 a 0.61637962,0.61637962 0 0 1 0.0625,-0.0937 c 0.0151,-0.0312 0.0127,-0.0654 0.0312,-0.0937 0.11347,-0.1739 0.29179,-0.37892 0.46875,-0.59375 0.39332,-0.47749 0.93314,-1.05814 1.65625,-1.78125 1.4237,-1.4237 3.53019,-3.40658 6.21875,-5.75 2.9e-4,-2.5e-4 0.0567,-0.0122 0.0937,-0.0312 0.0157,-0.017 -0.015,-0.0136 0,-0.0312 a 0.61637962,0.61637962 0 0 1 0.0937,-0.0625 0.61637962,0.61637962 0 0 1 0.0937,-0.0937 l 0.0312,0 6.5,-5.5625 0.0312,-0.0312 a 0.61637962,0.61637962 0 0 1 0.0312,-0.0312 c 4.01843,-3.36489 7.63484,-6.83698 10.84375,-10.375 1.32593,-1.44647 3.7049,-4.48342 5.75,-7.03125 a 0.61637962,0.61637962 0 0 1 1.0625,0.5625 c -0.32525,0.96987 -0.59569,1.80426 -0.625,2.46875 a 0.61637962,0.61637962 0 0 1 -0.0312,0.1875 c -0.0123,0.0339 -0.0237,0.01 -0.0312,0.0312 -0.004,0.0165 0.004,0.0184 0,0.0312 -0.004,0.009 -0.005,0.0473 0,0.0312 a 0.61637962,0.61637962 0 0 1 -0.0312,0.0312 0.61637962,0.61637962 0 0 1 0,0.0312 l -2.21875,11.75 0,0.0312 a 0.61637962,0.61637962 0 0 1 -0.0312,0.0937 0.61637962,0.61637962 0 0 1 -0.0312,0.125 c -0.009,0.0241 0.008,0.007 0,0.0312 l -2.125,8.03125 a 0.61637962,0.61637962 0 0 1 0,0.0312 l -2.25,6.71875 a 0.61637962,0.61637962 0 0 1 -0.0312,0.0625 0.61637962,0.61637962 0 0 1 0,0.0312 l -0.0312,0.0625 -0.28125,-0.125 c -0.15353,0.007 -0.3125,0 -0.3125,0 l 0.21875,0.125 0.34375,0.0625 -0.0312,0.0937 c -0.0174,0.0322 0.0153,-0.002 0,0.0312 l -0.0625,0.3125 0,0.0312 a 0.61637962,0.61637962 0 0 1 -0.0312,0.0937 c 3e-5,0.006 0,0.0249 0,0.0312 -0.003,0.017 0.003,0.0183 0,0.0312 -3e-5,0.0159 10e-6,0.02 0,0.0312 -10e-6,0.006 0,0.0293 0,0.0312 2e-5,0.005 0,0.025 0,0.0312 0,0.0124 2e-5,0.0153 0,0.0312 -2e-5,0.0159 10e-6,0.0197 0,0.0312 0,3e-5 -3e-5,0.029 0,0.0312 10e-6,0.004 0,0.0252 0,0.0312 10e-6,0.0121 10e-6,0.0153 0,0.0312 -10e-6,0.016 10e-6,0.0194 0,0.0312 0,0.006 0,0.0278 0,0.0312 0,0.003 0,0.0254 0,0.0312 10e-6,0.0118 -10e-6,0.0153 0,0.0312 10e-6,0.0159 0,0.019 0,0.0312 0,0.006 10e-6,0.027 0,0.0312 0.001,0.004 8e-5,0.0315 0,0.0312 10e-6,0.0114 -2e-5,0.0153 0,0.0312 2e-5,0.0159 0,0.0187 0,0.0312 0,0.006 2e-5,0.0263 0,0.0312 -3e-5,0.002 3.4e-4,0.0212 0,0.0312 0.004,0.007 -0.003,0.0257 0,0.0312 0,0 -0.0707,0.002 -0.0937,0 -0.0271,0.0172 -0.0512,0.0356 -0.0937,0.0625 0.0977,0.005 0.21875,-3e-5 0.21875,0 2e-5,0.0108 -5e-5,0.0153 0,0.0312 5e-5,0.0159 -10e-6,0.0181 0,0.0312 0,0.007 4e-5,0.0249 0,0.0312 0.001,-3.6e-4 0.0312,0 0.0312,0 0.003,0.0115 0.0272,0.0153 0.0312,0.0312 0.002,0.008 -0.002,0.0237 0,0.0312 0.002,0.004 -0.003,0.0253 0,0.0312 0.006,0.007 -6.5e-4,0.0303 0,0.0312 0.001,0.002 0.0299,-0.002 0.0312,0 0.002,0.005 -0.001,0.0272 0,0.0312 0.004,0.007 -0.003,0.0253 0,0.0312 0,0 -0.0773,0.0516 -0.0937,0.0625 -0.15784,0.10531 -0.90625,0.59375 -0.90625,0.59375 l 0.53125,-0.28125 -0.53125,0.3125 c 0,0 0.92082,-0.4741 1.03125,-0.53125 0.004,-0.002 0.0296,-0.0304 0.0312,-0.0312 10e-6,10e-6 0.0248,-0.006 0.0312,0 0.006,0.006 -0.002,0.0297 0,0.0312 0.004,0.007 0.0273,-0.008 0.0312,0 0.004,0.008 -0.004,0.0237 0,0.0312 0.006,0.006 -0.006,0.0253 0,0.0312 0.005,0.005 0.0267,-0.005 0.0312,0 0.004,0.006 -0.003,0.0266 0,0.0312 0.002,0.004 -10e-6,0.0312 0,0.0312 0.006,0.011 0.023,0.0166 0.0312,0.0312 l 0.0312,-0.0312 0.59375,0.6875 0.0312,0.0312 c 0.0122,0.0121 0.0153,0.0153 0.0312,0.0312 0.016,0.016 0.0194,0.0193 0.0312,0.0312 0.006,0.006 0.0278,0.0277 0.0312,0.0312 10e-6,10e-6 0.001,0.0302 0,0.0312 0.006,0.003 0.0235,0.0266 0.0312,0.0312 0.007,0.007 0.0233,-0.008 0.0312,0 0.011,0.007 0.0193,0.024 0.0312,0.0312 0.006,0.006 0.0269,0.0269 0.0312,0.0312 0.007,0.004 0.0276,-0.002 0.0312,0 0.006,0.007 -10e-6,0.0312 0,0.0312 0.003,0.002 0.0275,-0.002 0.0312,0 0.015,0.009 0.0426,0.0193 0.0625,0.0312 0.0199,0.012 0.0163,0.0223 0.0312,0.0312 0.007,0.004 0.0266,-0.003 0.0312,0 0.002,0.001 0.0284,-0.002 0.0312,0 0,0 0.001,0.0295 0,0.0312 0.006,0.002 0.0222,0.0282 0.0312,0.0312 0.008,0.005 0.0233,-0.005 0.0312,0 0.0112,0.004 0.0193,-0.004 0.0312,0 0.009,0.006 -0.008,0.0266 0,0.0312 0.0189,0.006 0.0483,-0.005 0.0625,0 0.009,0.003 0.0262,-0.002 0.0312,0 0.009,0.006 -2e-5,0.0312 0,0.0312 0.004,0.001 0.0268,-0.001 0.0312,0 0.0177,0.006 0.0386,-0.008 0.0625,0 0.0143,0.005 0.0182,0.0269 0.0312,0.0312 0.009,0.003 0.024,-0.002 0.0312,0 0.009,0.003 0.0252,-0.002 0.0312,0 0.008,0.002 0.0236,-0.002 0.0312,0 0.003,0.001 -5e-5,0.0312 0,0.0312 0.007,0.001 0.0252,-0.001 0.0312,0 0,0 0.0231,-0.004 0.0312,0 0.009,0.001 0.0201,-0.002 0.0312,0 0.0112,0.002 0.0193,-0.002 0.0312,0 0.006,-2e-5 0.0222,10e-6 0.0312,0 0.0113,0.002 0.0221,-0.002 0.0312,0 0.005,7.7e-4 0.0274,-6.5e-4 0.0312,0 0.004,-6.6e-4 0.0266,7.7e-4 0.0312,0 0.0112,10e-6 0.0223,-10e-6 0.0312,0 0.0113,-0.002 0.0193,0.002 0.0312,0 0.001,10e-6 0.0312,0 0.0312,0 0.0111,-0.002 0.0225,0.001 0.0312,0 0,0 0.125,0.59375 0.125,0.59375 5e-5,-10e-6 -0.0956,-0.59342 -0.0937,-0.59375 0.006,-9.5e-4 0.0223,-0.0297 0.0312,-0.0312 0.018,-0.003 0.0386,0.004 0.0625,0 0.0239,-0.004 0.0445,0.003 0.0625,0 0.009,-0.001 0.0256,9.2e-4 0.0312,0 0.002,-3.7e-4 0.0278,5.8e-4 0.0312,0 0,0 -0.0312,-0.0312 -0.0312,-0.0312 0.003,-5.8e-4 0.0269,7.3e-4 0.0312,0 0.009,-0.001 0.0201,0.002 0.0312,0 0.0111,-0.002 0.0193,0.002 0.0312,0 0.005,-0.003 0.0312,0 0.0312,0 0.008,-0.003 0.0236,0.003 0.0312,0 0.0115,-0.005 0.0223,-0.0277 0.0312,-0.0312 0.007,-0.004 0.0226,0.004 0.0312,0 0.009,-0.004 0.0218,0.005 0.0312,0 0.005,-0.002 -0.005,-0.0289 0,-0.0312 0.006,-0.005 0.0239,0.006 0.0312,0 0.007,-0.006 -0.009,-0.0247 0,-0.0312 0.005,-0.004 0.0269,0.004 0.0312,0 0.0112,-0.009 0.0469,-0.0196 0.0625,-0.0312 0.004,-0.003 -0.004,-0.0283 0,-0.0312 0.0195,-0.0188 0.0321,-0.009 0.0625,-0.0312 0.0102,-0.007 -0.0114,-0.0239 0,-0.0312 1.01603,-0.65051 1.59602,-1.69163 1.96875,-2.90625 a 0.61637962,0.61637962 0 0 1 0.0312,-0.0625 c 0.21216,-0.5153 0.69364,-1.21874 1.46875,-2.25 0.76431,-1.01689 1.80352,-2.27532 3.09375,-3.6875 -1.3e-4,2.4e-4 0.0158,-0.0381 0.0312,-0.0625 l 0.4375,0.375 0.0312,0 0.46875,0.40625 c 0,0 -0.84539,-0.81349 -0.875,-0.84375 a 0.61637962,0.61637962 0 0 1 0,-0.0312 l 4.3125,-4.3125 a 0.61637962,0.61637962 0 0 1 0.0625,-0.0937 0.61637962,0.61637962 0 0 1 0.0625,-0.0625 0.61637962,0.61637962 0 0 1 0.0312,-0.0312 0.61637962,0.61637962 0 0 1 0.0312,-0.0312 0.61637962,0.61637962 0 0 1 0.0937,-0.0937 l 4.3125,-4.21875 c 0.0167,-0.016 0.0152,-0.0146 0.0312,-0.0312 a 0.61637962,0.61637962 0 0 1 0.0312,-0.0312 c 0.0176,-0.015 0.0142,0.0157 0.0312,0 0.017,-0.0157 -0.0164,-0.0149 0,-0.0312 0.0164,-0.0164 0.0156,0.017 0.0312,0 0.0157,-0.017 -0.015,-0.0136 0,-0.0312 A 0.61637962,0.61637962 0 0 1 396.28125,335 l 8.78125,-8.78125 c 3.74476,-3.74481 6.54416,-6.75921 8.40625,-9.125 a 0.61637962,0.61637962 0 0 1 0,-0.0312 c 0.014,-0.017 0.0173,-0.0171 0.0312,-0.0312 0.0176,-0.0237 0.0149,-0.007 0.0312,-0.0312 0.0151,-0.0254 0.0175,-0.005 0.0312,-0.0312 a 0.61637962,0.61637962 0 0 1 0.0625,-0.0937 c 1.76408,-2.15942 3.09664,-3.98561 4,-5.375 0.0212,-0.0326 0.0165,-0.0121 0.0312,-0.0312 0.0255,-0.0394 0.0169,-0.0134 0.0312,-0.0312 0.01,-0.013 0.0174,-0.017 0.0312,-0.0312 0.0199,-0.0238 0.0352,-0.0364 0.0625,-0.0625 0.94688,-1.42949 1.75289,-2.77798 2.40625,-4 l 0.0312,0 a 0.61637962,0.61637962 0 0 1 0,-0.0312 c 0.003,-0.006 -0.003,-0.0245 0,-0.0312 a 0.61637962,0.61637962 0 0 1 0,-0.0312 c 0.005,-0.006 0.0276,0.004 0.0312,0 0.007,-0.0135 -0.005,-0.0222 0,-0.0312 0.004,-0.008 -0.004,-0.0229 0,-0.0312 0,0 0.0292,-0.001 0.0312,0 0.38409,-0.8478 0.73429,-1.75333 1.125,-2.6875 a 0.61637962,0.61637962 0 0 1 0,-0.0312 c 0.0105,-0.021 0.0196,-0.039 0.0312,-0.0625 1.44641,-2.91449 2.24988,-5.88257 2.25,-8.875 -5e-5,-2.15575 -0.48038,-4.00711 -1.625,-5.34375 -1.14851,-1.34119 -2.88991,-1.96872 -4.84375,-1.96875 -1.60802,9e-5 -3.07973,0.79467 -4.25,2.0625 -1.11814,1.2113 -1.87512,2.56621 -1.875,4.03125 -2e-4,0.40815 0.10864,0.76384 0.21875,1.09375 0.001,0.002 -0.002,0.0288 0,0.0312 -0.0149,-0.0182 -0.0312,-0.0312 -0.0312,-0.0312 -1.3e-4,-1.8e-4 -0.0263,0.0281 -0.0312,0.0312 l -0.0625,0 c -0.0716,0.0561 -0.14438,0.10485 -0.25,0.1875 0.18698,-0.0503 0.40625,-0.0938 0.40625,-0.0937 0.002,0.007 0.0292,-0.008 0.0312,0 0.004,0.0159 -0.003,0.0499 0,0.0625 6.2e-4,0.003 -0.002,0.0195 0,0.0312 0.004,0.004 -0.005,0.0265 0,0.0312 0.01,0.01 0.0193,0.0193 0.0312,0.0312 0.005,0.005 0.0267,-0.005 0.0312,0 0,0 0.001,0.0299 0,0.0312 0.004,0.004 0.0279,-0.003 0.0312,0 0.004,0.008 -0.004,0.0237 0,0.0312 0.001,0.004 -4e-5,0.0311 0,0.0312 5.5e-4,-5.4e-4 0.0312,0 0.0312,0 8.9e-4,0.002 -0.003,0.0239 0,0.0312 0.004,0.004 0.0302,-10e-4 0.0312,0 0.003,0.003 -0.005,0.0267 0,0.0312 0.009,0.009 0.0193,0.0193 0.0312,0.0312 0.008,0.012 0.025,0.0218 0.0312,0.0312 0,0 0.0278,-0.005 0.0312,0 0.001,0.002 -0.005,0.0227 0,0.0312 0.004,0.004 0.0264,-0.005 0.0312,0 0.0154,0.0154 0.0234,0.0235 0.0312,0.0312 0.2702,0.26453 0.55139,0.4714 0.78125,0.625 l -0.34375,0.5 c 0,0 0.0713,-0.0198 0.0937,-0.0312 0.0417,-0.0212 0.0779,-0.0538 0.15625,-0.0937 0.0903,-0.15126 0.18736,-0.31259 0.1875,-0.3125 0.009,0.006 0.0253,-0.004 0.0312,0 0.003,0.002 -0.004,0.029 0,0.0312 0.002,0.001 0.0312,-4e-5 0.0312,0 0.003,0.004 -0.003,0.0271 0,0.0312 0.008,0.005 0.0233,-0.005 0.0312,0 0.005,0.007 4e-5,0.0313 0,0.0312 0.009,0.006 0.0237,-0.005 0.0312,0 0.008,0.003 0.0233,-0.003 0.0312,0 6e-5,2e-5 0.0294,-5.8e-4 0.0312,0 0.003,9.3e-4 0.0276,-0.001 0.0312,0 0.007,0.003 -0.004,0.0295 0,0.0312 0.018,0.006 0.0386,-0.008 0.0625,0 0.005,0.002 -0.005,0.0297 0,0.0312 0.009,0.001 0.0292,-3.9e-4 0.0312,0 0.009,0.003 0.0241,-0.002 0.0312,0 0.0154,0.003 0.0113,-0.004 0.0312,0 0.001,3.9e-4 0.0312,-2e-5 0.0312,0 0,0 0,0.0312 0,0.0312 0.007,0.001 0.0254,-0.001 0.0312,0 0.007,0.001 0.0272,-8.1e-4 0.0312,0 0.004,8.6e-4 0.0238,-0.001 0.0312,0 0.0149,0.003 0.0113,-0.004 0.0312,0 0.02,0.004 0.0473,0.0282 0.0625,0.0312 0.008,0.002 0.026,-0.001 0.0312,0 0.003,7.6e-4 0.0312,-10e-6 0.0312,0 0.0111,0.002 0.0193,-0.002 0.0312,0 0.005,-10e-6 0.0223,10e-6 0.0312,0 0.0113,0.002 0.0221,-0.002 0.0312,0 0.005,7.7e-4 0.0274,-6.5e-4 0.0312,0 0.0239,0 0.0446,-10e-6 0.0625,0 l 0.0312,0 0.0312,0 0.0312,0 0.96875,-0.0937 a 0.61637962,0.61637962 0 0 1 0.0625,0 c 0.0454,-0.003 0.0807,-0.001 0.0937,0 0.0226,0.002 0.0245,-6.1e-4 0.0312,0 a 0.61637962,0.61637962 0 0 1 0.53125,0.5 c -0.003,-0.0104 0.0236,0.004 0.0312,0.0312 0.002,0.0105 -0.003,0.006 0,0.0312 0.0153,0.0554 0.041,0.1157 0.0625,0.21875 0.0488,0.23358 0.0937,0.58839 0.0937,1.03125 -6e-5,2.09732 -0.56734,4.55794 -1.8125,7.4375 -1.26451,2.92405 -2.69089,5.50468 -4.25,7.6875 a 0.61637962,0.61637962 0 0 1 -0.0312,0.0312 0.61637962,0.61637962 0 0 1 -0.0312,0.0625 c -0.007,0.0103 -0.0242,0.0209 -0.0312,0.0312 -1.46732,2.14922 -3.6836,4.86429 -6.65625,8.15625 0.0278,-0.0515 0.007,0.0172 0,0.0312 -0.011,0.0122 -0.0202,0.0191 -0.0312,0.0312 a 0.61637962,0.61637962 0 0 1 -0.0312,0.0312 0.61637962,0.61637962 0 0 1 -0.0625,0.0937 l -7.78125,8.3125 a 0.61637962,0.61637962 0 0 1 -1.03125,-0.625 c 0.43922,-1.23313 0.82819,-2.17215 1.3125,-3.625 0.99674,-3.07346 1.90074,-7.39642 2.78125,-12.9375 -0.0222,0.13963 -0.0328,0.11328 0,-0.0937 0.0103,-0.0649 -0.007,-6.9e-4 0,-0.0312 2.4e-4,-0.0163 2.4e-4,-0.0149 0,-0.0312 a 0.61637962,0.61637962 0 0 1 0.0312,-0.0937 0.61637962,0.61637962 0 0 1 0,-0.0625 c 0.006,-0.0215 0.0243,-0.0123 0.0312,-0.0312 0.001,-0.007 -0.004,-0.0187 0,-0.0312 a 0.61637962,0.61637962 0 0 1 0,-0.0312 c 0.0494,-0.18862 0.0947,-0.2797 0.125,-0.40625 0.0749,-0.31304 0.20718,-0.7474 0.34375,-1.34375 0.26784,-1.16954 0.63686,-2.83471 1.125,-5.03125 0.55726,-2.38847 0.92038,-3.93721 1.125,-4.5625 a 0.61637962,0.61637962 0 0 1 0.0312,-0.0312 c 0.008,-0.0207 0.0192,-0.0389 0.0312,-0.0625 0.46487,-1.18132 0.93268,-2.19104 1.34375,-2.9375 0.20553,-0.37323 0.40455,-0.66453 0.5625,-0.90625 0.10669,-0.16327 0.19289,-0.26578 0.28125,-0.375 0.0425,-0.0525 0.0771,-0.13956 0.125,-0.1875 a 0.61637962,0.61637962 0 0 1 0.0312,0 c -0.0906,0.0847 -0.13957,0.14226 -0.15625,0.1875 -0.008,0.0226 0.005,0.0406 0,0.0625 -0.002,0.011 -0.0281,0.009 -0.0312,0.0312 -0.002,0.0109 -10e-6,0.0627 0,0.0625 10e-6,-1.3e-4 0.0313,0.12505 0.0312,0.125 0,0 0,0.0937 0,0.0937 0,0 0.0312,0.0937 0.0312,0.0937 0,0 0.5625,-0.28125 0.5625,-0.28125 -0.21817,-0.21763 -0.43766,-0.43734 -0.4375,-0.4375 0.009,-0.009 0.0505,-0.0193 0.0625,-0.0312 0.012,-0.012 0.0221,-0.0221 0.0312,-0.0312 0.005,-0.005 -0.003,-0.0281 0,-0.0312 l 0.0312,-0.0312 1.375,-1.84375 c 0.004,-0.007 0.0266,-0.0219 0.0312,-0.0312 0.006,-0.0112 0.0243,-0.0174 0.0312,-0.0312 l 0,-0.0312 0.0625,0.0625 c 0.10417,0.0301 0.53125,0.125 0.53125,0.125 10e-6,-10e-6 -0.1,-0.0806 -0.1875,-0.15625 -0.15408,0.001 -0.3125,0 -0.3125,0 0,0 0,-0.0625 0,-0.0625 10e-6,-6e-5 0.0298,-0.0878 0.0312,-0.0937 0.002,-0.006 -0.001,-0.0273 0,-0.0312 0.004,-0.0129 -0.005,-0.0464 0,-0.0625 0.003,-0.004 0.0279,0.004 0.0312,0 0.003,-0.004 -0.004,-0.0266 0,-0.0312 0.005,-0.0167 0.0269,-0.0162 0.0312,-0.0312 0.006,-0.008 -0.006,-0.0235 0,-0.0312 0.009,-0.0116 0.0237,-0.0218 0.0312,-0.0312 0.006,-0.008 0.026,0.007 0.0312,0 -0.002,-5.8e-4 0.002,-0.0307 0,-0.0312 -0.01,-0.003 -0.0625,1.2e-4 -0.0625,0 0.002,-0.005 0.0283,-0.0223 0.0312,-0.0312 0.006,-0.0179 -0.008,-0.0385 0,-0.0625 0.001,-0.008 0.0309,0.002 0.0312,0 0.003,-0.009 -0.003,-0.0225 0,-0.0312 0.002,-0.009 -0.002,-0.02 0,-0.0312 0.003,-0.009 -0.002,-0.0253 0,-0.0312 6e-4,-0.002 -0.002,-0.025 0,-0.0312 0.002,-0.0112 -0.002,-0.0223 0,-0.0312 7.5e-4,-0.004 -6.1e-4,-0.0276 0,-0.0312 2.3e-4,-0.002 0.0308,0.003 0.0312,0 1.9e-4,-0.001 -10e-6,-0.0312 0,-0.0312 0.001,-0.0104 -0.002,-0.0182 0,-0.0312 0,0 0,-0.0312 0,-0.0312 0.001,-0.009 -0.001,-0.0222 0,-0.0312 -2e-5,-0.006 10e-6,-0.0208 0,-0.0312 -10e-6,-0.0105 10e-6,-0.0182 0,-0.0312 0.002,-0.0106 -0.001,-0.0242 0,-0.0312 0,-0.0186 -10e-6,-0.046 0,-0.0625 -0.002,-0.009 0.002,-0.0199 0,-0.0312 10e-6,-0.0105 -2e-5,-0.0247 0,-0.0312 3e-5,-0.002 0,-0.0312 0,-0.0312 0,0 0,-0.0312 0,-0.0312 -0.001,-0.009 8.1e-4,-0.0263 0,-0.0312 0,0 0.59375,-0.0937 0.59375,-0.0937 0,0 -0.625,0.0625 -0.625,0.0625 -0.002,-0.0137 0.003,-0.0445 0,-0.0625 -0.002,-0.006 5.7e-4,-0.0296 0,-0.0312 -0.002,-0.0139 0.002,-0.0181 0,-0.0312 -0.002,-0.007 0.003,-0.0225 0,-0.0312 -0.004,-0.0131 -0.0265,-0.0169 -0.0312,-0.0312 -3e-4,-0.002 9.7e-4,-0.0227 0,-0.0312 -0.004,-0.007 0.004,-0.0225 0,-0.0312 -0.007,-0.0131 -0.0241,-0.0169 -0.0312,-0.0312 -0.0119,-0.0239 -0.0224,-0.0448 -0.0312,-0.0625 -0.004,-0.009 -0.0288,-0.0263 -0.0312,-0.0312 -0.003,-0.005 0.004,-0.0224 0,-0.0312 -0.009,-0.0178 -0.0193,-0.0386 -0.0312,-0.0625 -4e-5,-5e-5 7.7e-4,-0.0301 0,-0.0312 -0.002,-0.005 -0.0291,0.004 -0.0312,0 -0.004,-0.005 0.006,-0.0223 0,-0.0312 -0.005,-0.009 -0.0282,-0.0251 -0.0312,-0.0312 -0.006,-0.009 0.006,-0.0217 0,-0.0312 -0.012,-0.0179 -0.021,-0.0471 -0.0312,-0.0625 -0.001,-0.001 -0.0295,0.002 -0.0312,0 -0.005,-0.006 0.006,-0.024 0,-0.0312 -0.003,-0.004 -0.0282,0.004 -0.0312,0 -0.001,-0.002 3e-5,-0.0312 0,-0.0312 -0.008,-0.006 -0.0218,-0.0237 -0.0312,-0.0312 -0.009,-0.008 -0.0213,-0.0233 -0.0312,-0.0312 -0.012,-0.01 -0.0205,-0.0226 -0.0312,-0.0312 -0.007,-0.006 -0.0254,0.005 -0.0312,0 -0.002,-0.002 1.3e-4,-0.0311 0,-0.0312 -0.005,-0.004 -0.0238,0.006 -0.0312,0 -0.015,-0.012 -0.0425,-0.0465 -0.0625,-0.0625 -0.02,-0.016 -0.0475,-0.0192 -0.0625,-0.0312 -0.002,-0.002 0.003,-0.0292 0,-0.0312 10e-4,-0.001 -0.002,-0.029 0,-0.0312 L 403.65625,292.5 c -0.001,0.002 -0.0304,-0.001 -0.0312,0 -0.007,-0.005 -0.0221,-0.0244 -0.0312,-0.0312 -0.006,-0.003 -0.0237,0.004 -0.0312,0 -0.008,-0.006 -0.0237,0.006 -0.0312,0 -0.016,-0.008 -0.0195,-0.0253 -0.0312,-0.0312 -0.009,-0.004 -0.0198,-0.0267 -0.0312,-0.0312 -0.008,-0.003 -0.0233,0.003 -0.0312,0 -0.0199,-0.008 -0.0478,0.006 -0.0625,0 -0.007,-0.003 0.004,-0.0296 0,-0.0312 0,0 -9.6e-4,-0.0287 0,-0.0312 -0.009,-0.002 -0.029,4.2e-4 -0.0312,0 -0.006,-0.001 -0.0236,0.002 -0.0312,0 -0.006,-0.003 -0.0238,0.004 -0.0312,0 -0.008,-0.002 -0.0236,0.002 -0.0312,0 -0.016,-0.008 -0.0186,-0.0249 -0.0312,-0.0312 4e-5,10e-6 -0.0295,3.2e-4 -0.0312,0 -0.001,-6.5e-4 -0.0277,0.002 -0.0312,0 -0.015,-0.003 -0.0113,0.004 -0.0312,0 -0.0199,-0.004 -0.0476,-0.0283 -0.0625,-0.0312 -0.007,-0.002 -0.0268,9.1e-4 -0.0312,0 -1.8e-4,10e-6 -0.0289,-3e-5 -0.0312,0 -0.0147,-0.003 -0.0113,0.004 -0.0312,0 -0.0159,-0.003 -0.0489,0.003 -0.0625,0 -0.006,-10e-6 -0.0284,0 -0.0312,0 -0.005,10e-6 -0.0238,-10e-6 -0.0312,0 -0.0149,10e-6 -0.0113,0 -0.0312,0 -0.0199,0 -0.0475,10e-6 -0.0625,0 -0.007,-10e-6 -0.0265,10e-6 -0.0312,0 -0.004,0 -0.024,-10e-6 -0.0312,0 -0.0145,2e-5 -0.0113,-2e-5 -0.0312,0 -0.0199,2e-5 -0.0471,10e-6 -0.0625,0 -0.008,0 -0.0256,2e-5 -0.0312,0 -0.007,0.001 -0.0271,-8.2e-4 -0.0312,0 -0.005,-1.4e-4 -0.0312,0 -0.0312,0 -0.0148,0.003 -0.0426,0.0273 -0.0625,0.0312 -0.0199,0.004 -0.0161,-0.003 -0.0312,0 -0.008,0.002 -0.0262,-9.9e-4 -0.0312,0 -0.003,0.001 -0.0302,-4.2e-4 -0.0312,0 4e-4,0.003 0,0.0312 0,0.0312 -0.016,0.004 -0.05,-0.003 -0.0625,0 -0.008,0.003 -0.0236,-0.003 -0.0312,0 9.9e-4,0.002 10e-5,0.0312 0,0.0312 -0.007,0.003 -0.0253,-0.002 -0.0312,0 -0.005,0.004 -0.025,-0.005 -0.0312,0 -0.006,0.005 0.008,0.0256 0,0.0312 -0.008,0.004 -0.0238,-0.004 -0.0312,0 -0.007,0.004 -0.0253,-0.003 -0.0312,0 -0.006,0.003 0.004,0.0294 0,0.0312 -0.006,0.004 -0.0267,-0.003 -0.0312,0 0,0 -0.0253,-0.0498 -0.0312,-0.0625 -0.0698,-0.0819 -0.21148,-0.26188 -0.28125,-0.34375 l 0.25,0.4375 -0.84375,0.5 c -0.0167,0.016 -0.0152,0.0146 -0.0312,0.0312 l -0.0312,0.0312 -0.0625,0.0312 c -0.011,0.009 -0.0193,0.0217 -0.0312,0.0312 -0.02,0.016 -0.0477,0.0507 -0.0625,0.0625 -0.007,0.006 -0.027,-0.003 -0.0312,0 -0.001,8.8e-4 0.002,0.0296 0,0.0312 -0.0148,0.0118 -0.0425,0.0153 -0.0625,0.0312 -0.015,0.012 -0.0495,0.0209 -0.0625,0.0312 l -0.0625,0.0625 -1.59375,1.5 -0.0312,0 0,0.0312 -0.0312,0 a 0.61637962,0.61637962 0 0 1 -0.0312,0.0312 c -0.007,0.007 0.007,0.0244 0,0.0312 a 0.61637962,0.61637962 0 0 1 -0.0312,0.0312 c -0.006,0.006 -0.0266,0.0266 -0.0312,0.0312 l -3.75,4.25 -0.0312,0 c -0.0174,0.0322 0.0153,-0.002 0,0.0312 a 0.61637962,0.61637962 0 0 1 0,0.0312 0.61637962,0.61637962 0 0 1 -0.0625,0.0937 l -3.4375,4.5 a 0.61637962,0.61637962 0 0 1 -0.0625,0.0625 l -0.0625,0.0312 0,0.0312 -0.0312,0.0312 -4.1875,6.03125 a 0.61637962,0.61637962 0 0 1 -0.0312,0.0937 0.61637962,0.61637962 0 0 1 -0.0937,0.15625 c -2.63952,3.67929 -6.12183,7.91801 -10.40625,12.6875 -0.61864,0.68867 -1.177,1.19514 -1.75,1.8125 a 0.61637962,0.61637962 0 0 1 -0.96875,-0.71875 c 0.55625,-0.89514 1.1357,-1.82859 1.75,-2.75 2.31112,-3.46672 3.97022,-6.85761 5,-10.15625 0.005,-0.0408 0.025,-0.0706 0.0312,-0.0937 a 0.61637962,0.61637962 0 0 1 0,-0.0312 c 1.08585,-3.27555 1.6562,-6.38839 1.65625,-9.3125 -5e-5,-3.95094 -1.26349,-7.30417 -3.71875,-9.84375 a 0.61637962,0.61637962 0 0 1 -0.0312,-0.0625 0.61637962,0.61637962 0 0 1 -0.0937,-0.0937 0.61637962,0.61637962 0 0 1 0,-0.0312 c -0.008,-0.0118 -0.0312,-0.0312 -0.0312,-0.0312 -4e-5,-9e-5 0.003,-0.0227 0,-0.0312 -0.0245,-0.0245 -0.005,0.023 -0.0312,0 -2.71502,-2.4434 -6.23948,-3.68744 -10.34375,-3.6875 z m 35.0625,4.375 c 0.019,-0.0504 0.21875,-0.53125 0.21875,-0.53125 -2e-5,-10e-6 -0.10345,0.21423 -0.1875,0.375 -0.0107,0.0627 -0.03,0.15645 -0.0312,0.15625 z m 9.25,4.375 c -0.0132,0.0173 -0.10147,0.10609 -0.1875,0.21875 0.0603,-0.0307 0.0828,-0.041 0.125,-0.0625 0.0243,-0.0647 0.0616,-0.15659 0.0625,-0.15625 z m 7.65625,10.46875 c 0.026,0.013 0.16543,0.0829 0.3125,0.15625 -0.0693,-0.14135 -0.15625,-0.28125 -0.15625,-0.28125 4e-5,-3e-5 -0.0938,0.0626 -0.0937,0.0625 -0.006,0.004 0.002,0.0294 0,0.0312 -0.005,0.004 -0.0256,-0.005 -0.0312,0 -0.002,0.002 -0.0281,0.0315 -0.0312,0.0312 z m -42.375,42.90625 c 0.062,-0.16135 -0.20638,0.0252 -0.15625,-0.0625 l 0.15625,0.0625 z m -30.59375,2.3125 c 0,0 -0.0285,7.6e-4 -0.0312,0 -0.074,0.0192 -0.24964,0.06 -0.5,0.125 0,0 0.43303,-0.10391 0.53125,-0.125 z M 359.71875,319.875 c 0.001,-0.006 0.0286,-0.0498 0.0312,-0.0625 -0.0114,-0.17282 -0.0312,-0.46875 -0.0312,-0.46875 0,0 -0.0614,0.11491 -0.125,0.21875 2.1e-4,0.0296 -2.1e-4,0.0317 0,0.0625 0.009,0.0183 0.0229,0.0138 0.0312,0.0312 0.006,0.0116 -0.005,0.0203 0,0.0312 0.0394,0.0824 0.0937,0.1875 0.0937,0.1875 z m 44.75,-27.5 -0.0625,0.125 c 0.0389,-0.0433 0.0937,-0.125 0.0937,-0.125 l -0.0312,0 z m 6.78125,3.34375 c -0.17253,0.0218 -0.46875,0.0312 -0.46875,0.0312 l -0.0625,0.0312 c -0.21561,0.14068 -0.4375,0.28125 -0.4375,0.28125 a 0.61637962,0.61637962 0 0 1 0,0.0625 c 0,0 0.0625,0.0625 0.0625,0.0625 0,0 0.5,-0.34375 0.5,-0.34375 0,0 0.17378,-0.0286 0.34375,-0.0625 0.0282,-0.0308 0.0403,-0.0382 0.0625,-0.0625 z m -0.8125,0.0312 -0.25,0.0937 c 0,0 0.12004,-0.0215 0.15625,-0.0312 0.0256,-0.0164 0.0571,-0.0391 0.0937,-0.0625 z m 0.71875,0.375 c -0.0528,0.0134 -0.0632,0.0156 -0.125,0.0312 0,0 -0.0267,0.029 -0.0312,0.0312 -0.0643,0.0315 -0.53125,0.25 -0.53125,0.25 a 0.61637962,0.61637962 0 0 1 0.0625,0.0937 c 0,0 0.0312,0.0312 0.0312,0.0312 0,0 0.24591,-0.17245 0.5,-0.34375 0.0472,-0.046 0.0487,-0.0499 0.0937,-0.0937 z m -51.875,23.21875 c 0,0 -0.0287,0.12863 -0.0625,0.25 0.0174,0.0605 0.0145,0.067 0.0312,0.125 0.0171,-0.0213 0.0561,-0.0469 0.0937,-0.0937 -0.0356,-0.13946 -0.0625,-0.28125 -0.0625,-0.28125 z M 360,319.375 c 0,0 -0.0459,0.2302 -0.0937,0.40625 0.0152,-0.0222 0.0127,-0.0354 0.0312,-0.0625 C 359.96766,319.54702 360,319.375 360,319.375 z m 0.53125,0.21875 c -3e-5,-10e-6 -0.20196,0.40303 -0.25,0.5 0.007,-0.009 0.0438,-0.0398 0.0625,-0.0625 0.0686,-0.15238 0.1875,-0.4375 0.1875,-0.4375 z m -12.71875,30.25 c 0,0 0.0312,0 0.0312,0 a 0.61637962,0.61637962 0 0 1 -0.0312,0.0312 c 9.3e-4,-0.004 10e-6,-0.0313 0,-0.0312 z m 28.9375,1 c -0.1366,0.0154 -0.28125,0.0312 -0.28125,0.0312 0,0 0.22049,-0.002 0.375,0 -0.0469,-0.0113 -0.0469,-0.0199 -0.0937,-0.0312 z m 0.34375,0.46875 -0.625,0.0312 c 0,0 0.23082,0.001 0.40625,0 0.17543,-0.001 0.22432,0.001 0.40625,0 0.0174,-0.009 0.0126,-0.0213 0.0312,-0.0312 -0.0976,-0.006 -0.21875,0 -0.21875,0 z m 0.1875,0.15625 c -0.0606,0.0283 -0.15625,0.0625 -0.15625,0.0625 0,10e-6 0.11023,-0.004 0.1875,0 0.0563,-0.0317 0.0663,-0.0295 0.125,-0.0625 -0.0751,-0.008 -0.0923,0.007 -0.15625,0 z m -0.15625,0.0625 -0.46875,0.0937 c 0.081,0.005 0.11499,0.0251 0.21875,0.0312 0.12809,-0.0529 0.25,-0.125 0.25,-0.125 z m -30.375,0.0312 c 0,0 0.17894,0.0426 0.34375,0.0937 0.0737,-0.003 0.11714,7.3e-4 0.15625,0 l -0.375,-0.0937 -0.125,0 z m 30.5625,0.125 c -0.0476,0.0301 -0.125,0.0937 -0.125,0.0937 0,0 -0.17662,0.0177 -0.34375,0.0312 -0.13702,0.0111 -0.28125,0.0312 -0.28125,0.0312 a 0.61637962,0.61637962 0 0 1 0.0312,0.125 c 0,0 0.57875,-0.16523 0.90625,-0.25 -0.0888,-0.0166 -0.10595,-0.016 -0.1875,-0.0312 z m -30.59375,0.4375 c 0,0 0.14606,0.0134 0.28125,0.0312 0.028,-0.009 0.035,0.009 0.0625,0 -0.1679,-0.007 -0.34375,-0.0312 -0.34375,-0.0312 z m 32.1875,1 c -0.007,0.006 -0.0472,0.0186 -0.0625,0.0312 -0.073,0.13347 -0.21875,0.4375 -0.21875,0.4375 4e-5,2e-5 0.2252,-0.37448 0.28125,-0.46875 z"
       transform="matrix(1.1058218,0,0,1.1783163,-353.4891,-317.02007)" />
  </g>
</svg>
